ply
format ascii 1.0
comment Created by Blender 2.82 (sub 7) - www.blender.org, source file: ''
element vertex 246
property float x
property float y
property float z
property float nx
property float ny
property float nz
property uchar red
property uchar green
property uchar blue
property uchar alpha
element face 132
property list uchar uint vertex_indices
end_header
-0.011258 0.045317 0.044743 0.000000 0.000000 -1.000000 143 143 143 255
-0.011258 0.041017 0.044743 0.000000 0.000000 -1.000000 143 143 143 255
-0.026290 0.045306 0.044743 0.000000 0.000000 -1.000000 143 143 143 255
-0.026536 0.041133 0.044743 0.000000 0.000000 -1.000000 143 143 143 255
-0.026645 0.044923 0.044743 0.000000 -0.000000 -1.000000 143 143 143 255
0.011242 0.041017 0.046743 0.000000 -0.000000 -1.000000 143 143 143 255
-0.011258 0.041017 0.046743 0.000000 -0.000000 -1.000000 143 143 143 255
0.011242 0.045317 0.046743 0.000000 -0.000000 -1.000000 143 143 143 255
-0.011258 0.045317 0.046743 0.000000 0.000000 -1.000000 143 143 143 255
0.027091 0.042234 0.044743 0.000000 0.000000 -1.000000 143 143 143 255
0.011242 0.041017 0.044743 0.000000 0.000000 -1.000000 143 143 143 255
0.011242 0.045317 0.044743 0.000000 0.000000 -1.000000 143 143 143 255
0.026136 0.045317 0.044743 0.000000 0.000000 -1.000000 143 143 143 255
0.011242 0.041017 0.046743 0.000003 -1.000000 -0.000001 143 143 143 255
0.011242 0.041017 0.044076 0.000003 -1.000000 -0.000001 143 143 143 255
0.026403 0.041017 0.046199 0.000003 -1.000000 -0.000001 143 143 143 255
-0.014929 0.041017 0.051543 0.000004 -1.000000 -0.000019 143 143 143 255
-0.026419 0.041017 0.046199 0.000004 -1.000000 -0.000019 143 143 143 255
-0.011288 0.041017 0.044744 0.000004 -1.000000 -0.000019 143 143 143 255
0.015166 0.041017 0.051177 0.000003 -1.000000 -0.000001 143 143 143 255
0.011242 0.041017 0.046743 -0.000007 -1.000000 0.000009 143 143 143 255
0.015166 0.041017 0.051177 -0.000007 -1.000000 0.000009 143 143 143 255
-0.011288 0.041017 0.044744 -0.000007 -1.000000 0.000009 143 143 143 255
0.015166 0.041017 0.051177 0.000000 -1.000000 -0.000021 143 143 143 255
-0.014929 0.041017 0.051543 0.000000 -1.000000 -0.000021 143 143 143 255
-0.011288 0.041017 0.044744 0.000000 -1.000000 -0.000021 143 143 143 255
0.015166 0.045317 0.051177 -0.000001 1.000000 0.000004 143 143 143 255
0.026136 0.045317 0.047880 -0.000001 1.000000 0.000004 143 143 143 255
0.011242 0.045317 0.046743 -0.000001 1.000000 0.000004 143 143 143 255
0.011242 0.045317 0.046743 -0.000000 1.000000 0.000001 143 143 143 255
0.026136 0.045317 0.047880 -0.000000 1.000000 0.000001 143 143 143 255
0.011242 0.045317 0.042743 -0.000000 1.000000 0.000001 143 143 143 255
-0.011258 0.045317 0.044743 0.000011 1.000000 -0.000032 143 143 143 255
-0.026152 0.045317 0.047880 0.000011 1.000000 -0.000032 143 143 143 255
-0.014929 0.045317 0.051543 0.000011 1.000000 -0.000032 143 143 143 255
-0.011258 0.045317 0.044743 0.000000 1.000000 -0.000038 143 143 143 255
-0.014929 0.045317 0.051543 0.000000 1.000000 -0.000038 143 143 143 255
0.015166 0.045317 0.051177 0.000000 1.000000 -0.000038 143 143 143 255
-0.011258 0.045317 0.044743 -0.000013 1.000000 0.000015 143 143 143 255
0.015166 0.045317 0.051177 -0.000013 1.000000 0.000015 143 143 143 255
0.011242 0.045317 0.046743 -0.000013 1.000000 0.000015 143 143 143 255
-0.022718 0.037281 0.035787 -0.996164 0.000000 -0.087504 143 143 143 255
-0.019548 0.033721 -0.000301 -0.996164 0.000000 -0.087504 143 143 143 255
-0.022718 -0.032132 0.035787 -0.996164 0.000000 -0.087504 143 143 143 255
-0.019548 -0.028572 -0.000301 -0.996164 0.000000 -0.087504 143 143 143 255
0.019034 0.033721 -0.000757 0.000000 0.000000 -1.000000 143 143 143 255
0.019034 -0.028572 -0.000757 0.000000 0.000000 -1.000000 143 143 143 255
-0.019050 0.033721 -0.000757 0.000000 0.000000 -1.000000 143 143 143 255
-0.019050 -0.028572 -0.000757 0.000000 0.000000 -1.000000 143 143 143 255
0.022702 -0.032132 0.035787 0.996164 0.000000 -0.087504 143 143 143 255
0.019532 -0.028572 -0.000301 0.996164 0.000000 -0.087504 143 143 143 255
0.022702 0.037281 0.035787 0.996164 0.000000 -0.087504 143 143 143 255
0.019532 0.033721 -0.000301 0.996164 0.000000 -0.087504 143 143 143 255
-0.019050 -0.029070 -0.000306 -0.000000 -0.995170 -0.098172 143 143 143 255
0.019034 -0.029070 -0.000306 -0.000000 -0.995170 -0.098172 143 143 143 255
-0.022221 -0.032631 0.035792 -0.000000 -0.995170 -0.098172 143 143 143 255
0.022205 -0.032631 0.035792 0.000000 -0.995170 -0.098172 143 143 143 255
0.022205 0.037780 0.035792 0.000000 0.995163 -0.098234 143 143 143 255
-0.000649 0.037152 0.029430 0.000000 0.995163 -0.098234 143 143 143 255
-0.022221 0.037780 0.035792 0.000000 0.995163 -0.098234 143 143 143 255
0.012559 0.036514 0.022956 0.000062 0.995163 -0.098236 143 143 143 255
0.008971 0.036862 0.026484 0.000062 0.995163 -0.098236 143 143 143 255
0.022205 0.037780 0.035792 0.000062 0.995163 -0.098236 143 143 143 255
0.019034 0.034219 -0.000306 0.000066 0.995192 -0.097947 143 143 143 255
0.010893 0.034633 0.003895 0.000066 0.995192 -0.097947 143 143 143 255
0.014660 0.035196 0.009615 0.000066 0.995192 -0.097947 143 143 143 255
-0.022221 0.037780 0.035792 0.000019 0.995170 -0.098170 143 143 143 255
-0.015108 0.035664 0.014343 0.000019 0.995170 -0.098170 143 143 143 255
-0.019050 0.034219 -0.000306 0.000019 0.995170 -0.098170 143 143 143 255
0.019034 0.034219 -0.000306 0.000904 0.995161 -0.098250 143 143 143 255
0.014840 0.035685 0.014500 0.000904 0.995161 -0.098250 143 143 143 255
0.022205 0.037780 0.035792 0.000904 0.995161 -0.098250 143 143 143 255
-0.022982 -0.032915 0.036243 -0.000000 0.000000 -1.000000 143 143 143 255
0.022968 -0.032888 0.036243 -0.000000 0.000000 -1.000000 143 143 143 255
-0.000343 -0.038858 0.036243 -0.000000 0.000000 -1.000000 143 143 143 255
0.001852 -0.043250 0.036243 0.000000 0.000000 -1.000000 143 143 143 255
-0.000008 -0.047195 0.036243 0.000000 0.000000 -1.000000 143 143 143 255
-0.002492 -0.042642 0.036243 0.000000 0.000000 -1.000000 143 143 143 255
0.026136 -0.036241 0.036243 0.000000 0.000000 -1.000000 143 143 143 255
-0.026152 -0.036241 0.036243 0.000000 0.000000 -1.000000 143 143 143 255
-0.022994 0.038038 0.036243 -0.000000 -0.000000 -1.000000 143 143 143 255
-0.026152 0.044817 0.036243 -0.000000 -0.000000 -1.000000 143 143 143 255
0.022985 0.038043 0.036243 -0.000000 -0.000000 -1.000000 143 143 143 255
0.026136 0.044817 0.036243 -0.000000 -0.000000 -1.000000 143 143 143 255
0.011242 0.045317 0.044743 0.000000 -0.000000 1.000000 143 143 143 255
0.011242 0.041017 0.044743 0.000000 -0.000000 1.000000 143 143 143 255
0.026144 0.045323 0.044743 0.000000 -0.000000 1.000000 143 143 143 255
0.026815 0.042351 0.044743 0.000000 -0.000000 1.000000 143 143 143 255
-0.011258 0.041017 0.044743 -0.000000 0.000000 1.000000 143 143 143 255
-0.011258 0.045317 0.044743 -0.000000 0.000000 1.000000 143 143 143 255
-0.025852 0.041017 0.044743 -0.000000 0.000000 1.000000 143 143 143 255
-0.026486 0.045150 0.044743 -0.000000 0.000000 1.000000 143 143 143 255
-0.026314 -0.036173 0.044743 0.000000 0.000000 1.000000 143 143 143 255
-0.000174 -0.046793 0.044743 0.000000 0.000000 1.000000 143 143 143 255
-0.004215 -0.040333 0.044743 0.000000 0.000000 1.000000 143 143 143 255
0.002433 -0.037873 0.044743 0.000000 0.000000 1.000000 143 143 143 255
0.026297 -0.036174 0.044743 0.000000 0.000000 1.000000 143 143 143 255
0.003199 -0.044348 0.044743 0.000000 -0.000000 1.000000 143 143 143 255
0.026636 0.044817 0.045789 1.000000 0.000000 -0.000000 143 143 143 255
0.026636 -0.036241 0.044743 1.000000 0.000000 -0.000000 143 143 143 255
0.026636 0.044817 0.036743 1.000000 0.000000 -0.000000 143 143 143 255
0.026636 -0.036241 0.036743 1.000000 -0.000000 0.000000 143 143 143 255
0.011242 0.045317 0.042743 0.000000 1.000000 -0.000000 143 143 143 255
0.026136 0.045317 0.047880 0.000000 1.000000 -0.000000 143 143 143 255
0.026136 0.045317 0.036743 0.000000 1.000000 -0.000000 143 143 143 255
0.011242 0.045317 0.042743 -0.000015 1.000000 -0.000038 143 143 143 255
0.026136 0.045317 0.036743 -0.000015 1.000000 -0.000038 143 143 143 255
-0.011258 0.045317 0.044743 -0.000015 1.000000 -0.000038 143 143 143 255
-0.011258 0.045317 0.044743 -0.000000 1.000000 0.000033 143 143 143 255
0.026136 0.045317 0.036743 -0.000000 1.000000 0.000033 143 143 143 255
-0.026152 0.045317 0.036743 -0.000000 1.000000 0.000033 143 143 143 255
-0.011258 0.045317 0.044743 0.000018 1.000000 -0.000000 143 143 143 255
-0.026152 0.045317 0.036743 0.000018 1.000000 -0.000000 143 143 143 255
-0.026152 0.045317 0.047880 0.000018 1.000000 -0.000000 143 143 143 255
-0.026652 0.044817 0.036743 -1.000000 0.000000 -0.000000 143 143 143 255
-0.026652 -0.036241 0.036743 -1.000000 0.000000 -0.000000 143 143 143 255
-0.026652 0.044817 0.045789 -1.000000 0.000000 -0.000000 143 143 143 255
-0.026652 -0.036241 0.044743 -1.000000 0.000000 0.000000 143 143 143 255
-0.002922 -0.046900 0.036743 -0.399188 -0.916869 -0.000000 143 143 143 255
-0.002922 -0.046900 0.044743 -0.399188 -0.916869 -0.000000 143 143 143 255
-0.026352 -0.036699 0.036743 -0.399188 -0.916869 -0.000000 143 143 143 255
-0.026352 -0.036699 0.044743 -0.399188 -0.916869 0.000000 143 143 143 255
0.026336 -0.036699 0.036743 0.399188 -0.916869 0.000000 143 143 143 255
0.026336 -0.036699 0.044743 0.399188 -0.916869 0.000000 143 143 143 255
0.002906 -0.046900 0.036743 0.399188 -0.916869 0.000000 143 143 143 255
0.002906 -0.046900 0.044743 0.399188 -0.916869 0.000000 143 143 143 255
0.003363 -0.042426 0.042243 0.000000 0.000000 1.000000 143 143 143 255
0.003619 -0.039534 0.042243 0.000000 0.000000 1.000000 143 143 143 255
0.000762 -0.038073 0.042243 0.000000 0.000000 1.000000 143 143 143 255
-0.003410 -0.042499 0.042243 0.000000 0.000000 1.000000 143 143 143 255
-0.001463 -0.045313 0.042243 0.000000 0.000000 1.000000 143 143 143 255
0.001126 -0.044721 0.042243 0.000000 0.000000 1.000000 143 143 143 255
-0.025852 -0.035768 0.039743 1.000000 0.000000 0.000000 143 143 143 255
-0.025852 0.041017 0.039743 1.000000 0.000000 0.000000 143 143 143 255
-0.025852 -0.035768 0.044743 1.000000 0.000000 0.000000 143 143 143 255
-0.025852 0.041017 0.044743 1.000000 0.000000 0.000000 143 143 143 255
-0.011288 0.041017 0.044744 0.000010 -1.000000 0.000000 143 143 143 255
-0.025852 0.041017 0.044743 0.000010 -1.000000 0.000000 143 143 143 255
-0.025852 0.041017 0.039743 0.000010 -1.000000 0.000000 143 143 143 255
-0.011288 0.041017 0.044744 -0.000005 -1.000000 0.000042 143 143 143 255
-0.025852 0.041017 0.039743 -0.000005 -1.000000 0.000042 143 143 143 255
0.011242 0.041017 0.044076 -0.000005 -1.000000 0.000042 143 143 143 255
0.011242 0.041017 0.044076 0.000000 -1.000000 0.000001 143 143 143 255
-0.025852 0.041017 0.039743 0.000000 -1.000000 0.000001 143 143 143 255
0.025836 0.041017 0.039743 0.000000 -1.000000 0.000001 143 143 143 255
0.011242 0.041017 0.044076 -0.000000 -1.000000 -0.000000 143 143 143 255
0.025836 0.041017 0.039743 -0.000000 -1.000000 -0.000000 143 143 143 255
0.025836 0.041017 0.044743 -0.000000 -1.000000 -0.000000 143 143 143 255
0.025836 0.041017 0.039743 -1.000000 0.000000 -0.000000 143 143 143 255
0.025836 -0.035768 0.039743 -1.000000 0.000000 -0.000000 143 143 143 255
0.025836 0.041017 0.044743 -1.000000 0.000000 -0.000000 143 143 143 255
0.025836 -0.035768 0.044743 -1.000000 0.000000 0.000000 143 143 143 255
0.025836 -0.035768 0.039743 -0.000000 1.000000 0.000000 143 143 143 255
-0.025852 -0.035768 0.039743 -0.000000 1.000000 0.000000 143 143 143 255
0.025836 -0.035768 0.044743 -0.000000 1.000000 0.000000 143 143 143 255
-0.025852 -0.035768 0.044743 -0.000000 1.000000 0.000000 143 143 143 255
0.025836 -0.035768 0.039743 -0.000000 0.000000 1.000000 143 143 143 255
0.021733 -0.031687 0.039743 -0.000000 0.000000 1.000000 143 143 143 255
-0.025852 -0.035768 0.039743 -0.000000 0.000000 1.000000 143 143 143 255
-0.021746 -0.031660 0.039743 0.000000 0.000000 1.000000 143 143 143 255
-0.025852 0.041017 0.039743 0.000000 0.000000 1.000000 143 143 143 255
-0.021749 0.036836 0.039743 0.000000 0.000000 1.000000 143 143 143 255
0.025836 0.041017 0.039743 0.000000 -0.000000 1.000000 143 143 143 255
0.021733 0.036835 0.039743 0.000000 -0.000000 1.000000 143 143 143 255
0.016625 0.032915 0.000743 0.000000 -0.000000 1.000000 143 143 143 255
0.014075 0.025218 0.000743 0.000000 -0.000000 1.000000 143 143 143 255
0.018118 -0.027666 0.000743 0.000000 -0.000000 1.000000 143 143 143 255
-0.018134 -0.027666 0.000743 0.000000 0.000000 1.000000 143 143 143 255
-0.014177 0.025272 0.000743 0.000000 0.000000 1.000000 143 143 143 255
-0.016638 0.032907 0.000743 0.000000 0.000000 1.000000 143 143 143 255
-0.018134 -0.027666 0.000743 0.996165 0.000000 0.087494 143 143 143 255
-0.018134 0.032815 0.000743 0.996165 0.000000 0.087494 143 143 143 255
-0.021114 0.036162 0.034672 0.996165 0.000000 0.087494 143 143 143 255
-0.018134 -0.027666 0.000743 0.996165 -0.000000 0.087494 143 143 143 255
-0.021114 0.036162 0.034672 0.996165 -0.000000 0.087494 143 143 143 255
-0.021114 -0.031013 0.034672 0.996165 -0.000000 0.087494 143 143 143 255
0.018118 -0.027666 0.000743 -0.000000 0.995170 0.098171 143 143 143 255
-0.018134 -0.027666 0.000743 -0.000000 0.995170 0.098171 143 143 143 255
0.021098 -0.031013 0.034672 -0.000000 0.995170 0.098171 143 143 143 255
-0.021114 -0.031013 0.034672 0.000000 0.995170 0.098171 143 143 143 255
0.018118 0.032815 0.000743 -0.996165 0.000000 0.087494 143 143 143 255
0.018118 -0.027666 0.000743 -0.996165 0.000000 0.087494 143 143 143 255
0.021098 0.036162 0.034672 -0.996165 0.000000 0.087494 143 143 143 255
0.021098 -0.031013 0.034672 -0.996165 0.000000 0.087494 143 143 143 255
-0.020752 0.036317 0.036243 0.000000 -0.995338 0.096452 143 143 143 255
0.001083 0.035565 0.028484 0.000000 -0.995338 0.096452 143 143 143 255
0.020736 0.036317 0.036243 0.000000 -0.995338 0.096452 143 143 143 255
-0.014958 0.034408 0.016896 -0.000746 -0.995192 0.097939 143 143 143 255
-0.021114 0.036162 0.034672 -0.000746 -0.995192 0.097939 143 143 143 255
-0.016612 0.032812 0.000670 -0.000746 -0.995192 0.097939 143 143 143 255
0.014942 0.034408 0.016896 0.000745 -0.995192 0.097939 143 143 143 255
0.016596 0.032812 0.000670 0.000745 -0.995192 0.097939 143 143 143 255
0.021098 0.036162 0.034672 0.000745 -0.995192 0.097939 143 143 143 255
-0.020752 0.036317 0.042343 -0.000000 -1.000000 0.000000 143 143 143 255
-0.020752 0.036317 0.036243 -0.000000 -1.000000 0.000000 143 143 143 255
0.020736 0.036317 0.042343 -0.000000 -1.000000 0.000000 143 143 143 255
0.020736 0.036317 0.036243 0.000000 -1.000000 0.000000 143 143 143 255
0.021236 0.035817 0.042343 -1.000000 0.000000 0.000000 143 143 143 255
0.021236 0.035817 0.036243 -1.000000 0.000000 0.000000 143 143 143 255
0.021236 -0.030668 0.042343 -1.000000 0.000000 0.000000 143 143 143 255
0.021236 -0.030668 0.036243 -1.000000 0.000000 0.000000 143 143 143 255
0.020736 -0.031168 0.042343 -0.000000 1.000000 0.000000 143 143 143 255
0.020736 -0.031168 0.036243 -0.000000 1.000000 0.000000 143 143 143 255
-0.020752 -0.031168 0.042343 -0.000000 1.000000 0.000000 143 143 143 255
-0.020752 -0.031168 0.036243 0.000000 1.000000 -0.000000 143 143 143 255
-0.021252 -0.030668 0.042343 1.000000 0.000000 -0.000000 143 143 143 255
-0.021252 -0.030668 0.036243 1.000000 0.000000 -0.000000 143 143 143 255
-0.021252 0.035817 0.042343 1.000000 0.000000 -0.000000 143 143 143 255
-0.021252 0.035817 0.036243 1.000000 0.000000 -0.000000 143 143 143 255
0.011242 0.045317 0.042743 0.000000 -0.000000 1.000000 143 143 143 255
-0.011258 0.045317 0.042743 0.000000 -0.000000 1.000000 143 143 143 255
0.011242 0.041017 0.042743 0.000000 -0.000000 1.000000 143 143 143 255
-0.011258 0.041017 0.042743 -0.000000 0.000000 1.000000 143 143 143 255
-0.009531 0.046324 0.010979 -0.000000 1.000000 0.000000 143 143 143 255
-0.014636 0.046324 0.010075 -0.000000 1.000000 0.000000 143 143 143 255
-0.009765 0.046324 0.018447 -0.000000 1.000000 0.000000 143 143 143 255
-0.008542 0.046324 0.027101 0.000000 1.000000 0.000000 143 143 143 255
-0.002305 0.046324 0.024430 0.000000 1.000000 0.000000 143 143 143 255
0.003421 0.046324 0.004442 -0.000000 1.000000 0.000000 143 143 143 255
-0.004278 0.046324 0.000255 -0.000000 1.000000 0.000000 143 143 143 255
-0.011207 0.046324 0.006322 -0.000000 1.000000 0.000000 143 143 143 255
0.006260 0.046324 0.000607 0.000000 1.000000 -0.000000 143 143 143 255
0.008360 0.046324 0.008687 0.000000 1.000000 -0.000000 143 143 143 255
0.012987 0.046324 0.007516 0.000000 1.000000 -0.000000 143 143 143 255
0.006302 0.046324 0.028095 0.000000 1.000000 0.000000 143 143 143 255
0.008178 0.046324 0.021337 0.000000 1.000000 0.000000 143 143 143 255
0.014153 0.046324 0.019037 0.000000 1.000000 0.000000 143 143 143 255
0.009580 0.046324 0.010368 0.000000 1.000000 -0.000000 143 143 143 255
0.013848 0.046324 0.009204 0.000000 1.000000 -0.000000 143 143 143 255
-0.015108 0.028324 0.014343 -1.000000 0.000000 0.000000 143 143 143 255
-0.015108 0.034157 0.014343 -1.000000 0.000000 0.000000 143 143 143 255
-0.015108 0.028324 0.000743 -1.000000 0.000000 0.000000 143 143 143 255
-0.015108 0.032815 0.000743 -1.000000 -0.000000 0.000000 143 143 143 255
0.015092 0.028324 0.000743 1.000000 0.000000 0.000000 143 143 143 255
0.015092 0.032815 0.000743 1.000000 0.000000 0.000000 143 143 143 255
0.015092 0.028324 0.014343 1.000000 0.000000 0.000000 143 143 143 255
0.015092 0.034157 0.014343 1.000000 0.000000 0.000000 143 143 143 255
-0.000770 0.024324 0.019444 0.000000 -1.000000 -0.000000 143 143 143 255
0.007854 0.024324 0.023171 0.000000 -1.000000 -0.000000 143 143 143 255
-0.004040 0.024324 0.025003 0.000000 -1.000000 -0.000000 143 143 143 255
0.010717 0.024324 0.013893 0.000000 -1.000000 0.000000 143 143 143 255
0.000684 0.024324 0.009892 0.000000 -1.000000 0.000000 143 143 143 255
0.011092 0.024324 0.000743 0.000000 -1.000000 0.000000 143 143 143 255
-0.011108 0.024324 0.000743 0.000000 -1.000000 0.000000 143 143 143 255
-0.011381 0.024324 0.016225 0.000000 -1.000000 -0.000000 143 143 143 255
-0.005147 0.024324 0.015499 0.000000 -1.000000 -0.000000 143 143 143 255
3 0 1 2
3 2 1 3
3 3 4 2
3 5 6 7
3 7 6 8
3 9 10 11
3 11 12 9
3 13 14 15
3 16 17 18
3 13 15 19
3 20 21 22
3 23 24 25
3 26 27 28
3 29 30 31
3 32 33 34
3 35 36 37
3 38 39 40
3 41 42 43
3 43 42 44
3 45 46 47
3 47 46 48
3 49 50 51
3 51 50 52
3 53 54 55
3 55 54 56
3 57 58 59
3 60 61 62
3 63 64 65
3 66 67 68
3 69 70 71
3 72 73 74
3 75 76 77
3 76 75 78
3 79 77 76
3 73 75 74
3 80 81 82
3 82 81 83
3 74 77 72
3 72 77 79
3 81 80 79
3 79 80 72
3 78 73 83
3 83 73 82
3 75 73 78
3 84 85 86
3 86 85 87
3 88 89 90
3 90 89 91
3 92 90 91
3 93 94 92
3 94 95 92
3 92 95 96
3 96 95 97
3 96 97 93
3 98 99 100
3 100 99 101
3 102 103 104
3 105 106 107
3 108 109 110
3 111 112 113
3 114 115 116
3 116 115 117
3 118 119 120
3 120 119 121
3 122 123 124
3 124 123 125
3 126 127 128
3 129 130 131
3 132 133 134
3 134 133 135
3 136 137 138
3 139 140 141
3 142 143 144
3 145 146 147
3 148 149 150
3 150 149 151
3 152 153 154
3 154 153 155
3 156 157 158
3 158 157 159
3 158 159 160
3 160 159 161
3 162 163 156
3 156 163 157
3 160 161 162
3 162 161 163
3 164 165 166
3 167 168 169
3 166 165 167
3 167 165 168
3 170 171 172
3 173 174 175
3 176 177 178
3 178 177 179
3 180 181 182
3 182 181 183
3 184 185 186
3 187 188 189
3 190 191 192
3 193 194 195
3 195 194 196
3 197 198 199
3 199 198 200
3 201 202 203
3 203 202 204
3 205 206 207
3 207 206 208
3 209 210 211
3 211 210 212
3 213 214 215
3 215 216 217
3 215 214 216
3 218 219 220
3 218 221 219
3 222 223 218
3 218 223 221
3 217 216 224
3 217 224 225
3 225 224 226
3 225 226 227
3 227 226 228
3 229 230 231
3 231 230 232
3 233 234 235
3 235 234 236
3 237 238 239
3 240 241 242
3 240 238 237
3 242 241 243
3 243 241 244
3 245 239 244
3 237 239 245
