ply
format ascii 1.0
comment Created by Blender 2.82 (sub 7) - www.blender.org, source file: ''
element vertex 552
property float x
property float y
property float z
property float nx
property float ny
property float nz
property uchar red
property uchar green
property uchar blue
property uchar alpha
element face 288
property list uchar uint vertex_indices
end_header
1.098333 -0.017167 -0.518668 0.000000 -1.000000 0.000000 222 184 135 255
-1.115837 -0.017167 -0.518668 0.000000 -1.000000 0.000000 222 184 135 255
-1.115837 -0.017167 -0.603941 0.000000 -1.000000 0.000000 222 184 135 255
1.098333 -0.017167 -0.603941 0.000000 -1.000000 0.000000 222 184 135 255
1.098333 -0.001891 -0.518668 1.000000 0.000000 0.000000 222 184 135 255
1.098333 -0.017167 -0.518668 1.000000 0.000000 0.000000 222 184 135 255
1.098333 -0.017167 -0.603941 1.000000 0.000000 0.000000 222 184 135 255
1.098333 -0.001891 -0.603941 1.000000 -0.000000 0.000000 222 184 135 255
-1.115837 -0.001891 -0.518668 0.000000 1.000000 -0.000000 222 184 135 255
1.098333 -0.001891 -0.518668 0.000000 1.000000 -0.000000 222 184 135 255
1.098333 -0.001891 -0.603941 0.000000 1.000000 -0.000000 222 184 135 255
-1.115837 -0.001891 -0.603941 0.000000 1.000000 0.000000 222 184 135 255
-1.115837 -0.017167 -0.518668 -1.000000 0.000000 0.000000 222 184 135 255
-1.115837 -0.001891 -0.518668 -1.000000 0.000000 0.000000 222 184 135 255
-1.115837 -0.001891 -0.603941 -1.000000 0.000000 0.000000 222 184 135 255
-1.115837 -0.017167 -0.603941 -1.000000 -0.000000 -0.000000 222 184 135 255
1.098333 -0.001891 -0.518668 0.000000 0.000000 1.000000 222 184 135 255
-1.115837 -0.001891 -0.518668 0.000000 0.000000 1.000000 222 184 135 255
-1.115837 -0.017167 -0.518668 0.000000 0.000000 1.000000 222 184 135 255
1.098333 -0.017167 -0.518668 -0.000000 0.000000 1.000000 222 184 135 255
1.098333 -0.017167 -0.603941 0.000000 0.000000 -1.000000 222 184 135 255
-1.115837 -0.017167 -0.603941 0.000000 0.000000 -1.000000 222 184 135 255
-1.115837 -0.001891 -0.603941 0.000000 0.000000 -1.000000 222 184 135 255
1.098333 -0.001891 -0.603941 0.000000 0.000000 -1.000000 222 184 135 255
1.098333 -0.017167 0.209366 0.000000 -1.000000 0.000000 222 184 135 255
-1.115837 -0.017167 0.209366 0.000000 -1.000000 0.000000 222 184 135 255
-1.115837 -0.017167 0.124094 0.000000 -1.000000 0.000000 222 184 135 255
1.098333 -0.017167 0.124094 0.000000 -1.000000 0.000000 222 184 135 255
1.098333 -0.001891 0.209366 1.000000 0.000000 0.000000 222 184 135 255
1.098333 -0.017167 0.209366 1.000000 0.000000 0.000000 222 184 135 255
1.098333 -0.017167 0.124094 1.000000 0.000000 0.000000 222 184 135 255
1.098333 -0.001891 0.124094 1.000000 -0.000000 0.000000 222 184 135 255
-1.115837 -0.001891 0.209366 0.000000 1.000000 -0.000000 222 184 135 255
1.098333 -0.001891 0.209366 0.000000 1.000000 -0.000000 222 184 135 255
1.098333 -0.001891 0.124094 0.000000 1.000000 -0.000000 222 184 135 255
-1.115837 -0.001891 0.124094 0.000000 1.000000 0.000000 222 184 135 255
-1.115837 -0.017167 0.209366 -1.000000 0.000000 0.000000 222 184 135 255
-1.115837 -0.001891 0.209366 -1.000000 0.000000 0.000000 222 184 135 255
-1.115837 -0.001891 0.124094 -1.000000 0.000000 0.000000 222 184 135 255
-1.115837 -0.017167 0.124094 -1.000000 -0.000000 -0.000000 222 184 135 255
1.098333 -0.001891 0.209366 0.000000 0.000000 1.000000 222 184 135 255
-1.115837 -0.001891 0.209366 0.000000 0.000000 1.000000 222 184 135 255
-1.115837 -0.017167 0.209366 0.000000 0.000000 1.000000 222 184 135 255
1.098333 -0.017167 0.209366 -0.000000 0.000000 1.000000 222 184 135 255
1.098333 -0.017167 0.124094 0.000000 0.000000 -1.000000 222 184 135 255
-1.115837 -0.017167 0.124094 0.000000 0.000000 -1.000000 222 184 135 255
-1.115837 -0.001891 0.124094 0.000000 0.000000 -1.000000 222 184 135 255
1.098333 -0.001891 0.124094 0.000000 0.000000 -1.000000 222 184 135 255
-1.042887 -0.057787 0.621709 0.000000 -1.000000 0.000000 222 184 135 255
-1.167510 -0.057787 0.621709 0.000000 -1.000000 0.000000 222 184 135 255
-1.167510 -0.057787 0.596560 0.000000 -1.000000 0.000000 222 184 135 255
-1.042887 -0.057787 0.596560 0.000000 -1.000000 0.000000 222 184 135 255
-1.042887 0.057787 0.621709 1.000000 0.000000 0.000000 222 184 135 255
-1.042887 -0.057787 0.621709 1.000000 0.000000 0.000000 222 184 135 255
-1.042887 -0.057787 0.596560 1.000000 0.000000 0.000000 222 184 135 255
-1.042887 0.057787 0.596560 1.000000 -0.000000 0.000000 222 184 135 255
-1.167510 0.057787 0.621709 0.000000 1.000000 -0.000000 222 184 135 255
-1.042887 0.057787 0.621709 0.000000 1.000000 -0.000000 222 184 135 255
-1.042887 0.057787 0.596560 0.000000 1.000000 -0.000000 222 184 135 255
-1.167510 0.057787 0.596560 0.000000 1.000000 0.000000 222 184 135 255
-1.167510 -0.057787 0.621709 -1.000000 0.000000 0.000000 222 184 135 255
-1.167510 0.057787 0.621709 -1.000000 0.000000 0.000000 222 184 135 255
-1.167510 0.057787 0.596560 -1.000000 0.000000 0.000000 222 184 135 255
-1.167510 -0.057787 0.596560 -1.000000 -0.000000 -0.000000 222 184 135 255
-1.042887 0.057787 0.621709 0.000000 0.000000 1.000000 222 184 135 255
-1.167510 0.057787 0.621709 0.000000 0.000000 1.000000 222 184 135 255
-1.167510 -0.057787 0.621709 0.000000 0.000000 1.000000 222 184 135 255
-1.042887 -0.057787 0.621709 -0.000000 0.000000 1.000000 222 184 135 255
-1.042887 -0.057787 0.596560 0.000000 0.000000 -1.000000 222 184 135 255
-1.167510 -0.057787 0.596560 0.000000 0.000000 -1.000000 222 184 135 255
-1.167510 0.057787 0.596560 0.000000 0.000000 -1.000000 222 184 135 255
-1.042887 0.057787 0.596560 0.000000 0.000000 -1.000000 222 184 135 255
-1.056097 -0.045536 0.639620 0.000000 -1.000000 0.000000 222 184 135 255
-1.154300 -0.045536 0.639620 0.000000 -1.000000 0.000000 222 184 135 255
-1.154300 -0.045536 0.619802 0.000000 -1.000000 0.000000 222 184 135 255
-1.056097 -0.045536 0.619802 0.000000 -1.000000 0.000000 222 184 135 255
-1.056097 0.045536 0.639620 1.000000 0.000000 0.000000 222 184 135 255
-1.056097 -0.045536 0.639620 1.000000 0.000000 0.000000 222 184 135 255
-1.056097 -0.045536 0.619802 1.000000 0.000000 0.000000 222 184 135 255
-1.056097 0.045536 0.619802 1.000000 -0.000000 0.000000 222 184 135 255
-1.154300 0.045536 0.639620 0.000000 1.000000 -0.000000 222 184 135 255
-1.056097 0.045536 0.639620 0.000000 1.000000 -0.000000 222 184 135 255
-1.056097 0.045536 0.619802 0.000000 1.000000 -0.000000 222 184 135 255
-1.154300 0.045536 0.619802 0.000000 1.000000 0.000000 222 184 135 255
-1.154300 -0.045536 0.639620 -1.000000 0.000000 0.000000 222 184 135 255
-1.154300 0.045536 0.639620 -1.000000 0.000000 0.000000 222 184 135 255
-1.154300 0.045536 0.619802 -1.000000 0.000000 0.000000 222 184 135 255
-1.154300 -0.045536 0.619802 -1.000000 -0.000000 -0.000000 222 184 135 255
-1.056097 0.045536 0.639620 0.000000 0.000000 1.000000 222 184 135 255
-1.154300 0.045536 0.639620 0.000000 0.000000 1.000000 222 184 135 255
-1.154300 -0.045536 0.639620 0.000000 0.000000 1.000000 222 184 135 255
-1.056097 -0.045536 0.639620 -0.000000 0.000000 1.000000 222 184 135 255
-1.056097 -0.045536 0.619802 0.000000 0.000000 -1.000000 222 184 135 255
-1.154300 -0.045536 0.619802 0.000000 0.000000 -1.000000 222 184 135 255
-1.154300 0.045536 0.619802 0.000000 0.000000 -1.000000 222 184 135 255
-1.056097 0.045536 0.619802 0.000000 0.000000 -1.000000 222 184 135 255
1.167510 -0.057787 0.621709 0.000000 -1.000000 0.000000 222 184 135 255
1.042887 -0.057787 0.621709 0.000000 -1.000000 0.000000 222 184 135 255
1.042887 -0.057787 0.596560 0.000000 -1.000000 0.000000 222 184 135 255
1.167510 -0.057787 0.596560 0.000000 -1.000000 0.000000 222 184 135 255
1.167510 0.057787 0.621709 1.000000 0.000000 0.000000 222 184 135 255
1.167510 -0.057787 0.621709 1.000000 0.000000 0.000000 222 184 135 255
1.167510 -0.057787 0.596560 1.000000 0.000000 0.000000 222 184 135 255
1.167510 0.057787 0.596560 1.000000 -0.000000 0.000000 222 184 135 255
1.042887 0.057787 0.621709 0.000000 1.000000 -0.000000 222 184 135 255
1.167510 0.057787 0.621709 0.000000 1.000000 -0.000000 222 184 135 255
1.167510 0.057787 0.596560 0.000000 1.000000 -0.000000 222 184 135 255
1.042887 0.057787 0.596560 0.000000 1.000000 0.000000 222 184 135 255
1.042887 -0.057787 0.621709 -1.000000 0.000000 0.000000 222 184 135 255
1.042887 0.057787 0.621709 -1.000000 0.000000 0.000000 222 184 135 255
1.042887 0.057787 0.596560 -1.000000 0.000000 0.000000 222 184 135 255
1.042887 -0.057787 0.596560 -1.000000 -0.000000 -0.000000 222 184 135 255
1.167510 0.057787 0.621709 0.000000 0.000000 1.000000 222 184 135 255
1.042887 0.057787 0.621709 0.000000 0.000000 1.000000 222 184 135 255
1.042887 -0.057787 0.621709 0.000000 0.000000 1.000000 222 184 135 255
1.167510 -0.057787 0.621709 -0.000000 0.000000 1.000000 222 184 135 255
1.167510 -0.057787 0.596560 0.000000 0.000000 -1.000000 222 184 135 255
1.042887 -0.057787 0.596560 0.000000 0.000000 -1.000000 222 184 135 255
1.042887 0.057787 0.596560 0.000000 0.000000 -1.000000 222 184 135 255
1.167510 0.057787 0.596560 0.000000 0.000000 -1.000000 222 184 135 255
1.154300 -0.045536 0.639620 0.000000 -1.000000 0.000000 222 184 135 255
1.056097 -0.045536 0.639620 0.000000 -1.000000 0.000000 222 184 135 255
1.056097 -0.045536 0.619802 0.000000 -1.000000 0.000000 222 184 135 255
1.154300 -0.045536 0.619802 0.000000 -1.000000 0.000000 222 184 135 255
1.154300 0.045536 0.639620 1.000000 0.000000 0.000000 222 184 135 255
1.154300 -0.045536 0.639620 1.000000 0.000000 0.000000 222 184 135 255
1.154300 -0.045536 0.619802 1.000000 0.000000 0.000000 222 184 135 255
1.154300 0.045536 0.619802 1.000000 -0.000000 0.000000 222 184 135 255
1.056097 0.045536 0.639620 0.000000 1.000000 -0.000000 222 184 135 255
1.154300 0.045536 0.639620 0.000000 1.000000 -0.000000 222 184 135 255
1.154300 0.045536 0.619802 0.000000 1.000000 -0.000000 222 184 135 255
1.056097 0.045536 0.619802 0.000000 1.000000 0.000000 222 184 135 255
1.056097 -0.045536 0.639620 -1.000000 0.000000 0.000000 222 184 135 255
1.056097 0.045536 0.639620 -1.000000 0.000000 0.000000 222 184 135 255
1.056097 0.045536 0.619802 -1.000000 0.000000 0.000000 222 184 135 255
1.056097 -0.045536 0.619802 -1.000000 -0.000000 -0.000000 222 184 135 255
1.154300 0.045536 0.639620 0.000000 0.000000 1.000000 222 184 135 255
1.056097 0.045536 0.639620 0.000000 0.000000 1.000000 222 184 135 255
1.056097 -0.045536 0.639620 0.000000 0.000000 1.000000 222 184 135 255
1.154300 -0.045536 0.639620 -0.000000 0.000000 1.000000 222 184 135 255
1.154300 -0.045536 0.619802 0.000000 0.000000 -1.000000 222 184 135 255
1.056097 -0.045536 0.619802 0.000000 0.000000 -1.000000 222 184 135 255
1.056097 0.045536 0.619802 0.000000 0.000000 -1.000000 222 184 135 255
1.154300 0.045536 0.619802 0.000000 0.000000 -1.000000 222 184 135 255
-1.050455 -0.049252 -0.639620 0.000000 -1.000000 0.000000 222 184 135 255
-1.050455 -0.049252 0.610380 0.000000 -1.000000 0.000000 222 184 135 255
-1.160456 -0.049252 0.610380 0.000000 -1.000000 0.000000 222 184 135 255
-1.160456 -0.049252 -0.639620 -0.000000 -1.000000 -0.000000 222 184 135 255
-1.050455 0.050748 0.610380 0.000000 1.000000 0.000000 222 184 135 255
-1.050455 0.050748 -0.639620 0.000000 1.000000 0.000000 222 184 135 255
-1.160456 0.050748 -0.639620 0.000000 1.000000 0.000000 222 184 135 255
-1.160456 0.050748 0.610380 0.000000 1.000000 -0.000000 222 184 135 255
-1.050455 0.050748 0.610380 0.000000 0.000000 1.000000 222 184 135 255
-1.160456 0.050748 0.610380 0.000000 0.000000 1.000000 222 184 135 255
-1.160456 -0.049252 0.610380 0.000000 0.000000 1.000000 222 184 135 255
-1.050455 -0.049252 0.610380 -0.000000 0.000000 1.000000 222 184 135 255
-1.050455 0.050748 -0.639620 1.000000 -0.000000 0.000000 222 184 135 255
-1.050455 0.050748 0.610380 1.000000 -0.000000 0.000000 222 184 135 255
-1.050455 -0.049252 0.610380 1.000000 -0.000000 0.000000 222 184 135 255
-1.050455 -0.049252 -0.639620 1.000000 0.000000 0.000000 222 184 135 255
-1.160456 0.050748 -0.639620 0.000000 0.000000 -1.000000 222 184 135 255
-1.050455 0.050748 -0.639620 0.000000 0.000000 -1.000000 222 184 135 255
-1.050455 -0.049252 -0.639620 0.000000 0.000000 -1.000000 222 184 135 255
-1.160456 -0.049252 -0.639620 -0.000000 -0.000000 -1.000000 222 184 135 255
-1.160456 0.050748 0.610380 -1.000000 0.000000 0.000000 222 184 135 255
-1.160456 0.050748 -0.639620 -1.000000 0.000000 0.000000 222 184 135 255
-1.160456 -0.049252 -0.639620 -1.000000 0.000000 0.000000 222 184 135 255
-1.160456 -0.049252 0.610380 -1.000000 0.000000 0.000000 222 184 135 255
-0.700456 -0.001728 -0.605327 0.000000 -1.000000 0.000000 222 184 135 255
-0.820455 -0.001728 0.464118 0.000000 -1.000000 0.000000 222 184 135 255
-0.820455 -0.001728 -0.605327 0.000000 -1.000000 0.000000 222 184 135 255
-0.700456 -0.001728 0.464118 0.000000 -1.000000 0.000000 222 184 135 255
-0.760455 -0.001728 0.572673 0.000000 -1.000000 0.000000 222 184 135 255
-0.820455 0.018272 -0.605327 0.000000 1.000000 -0.000000 222 184 135 255
-0.700456 0.018272 0.464118 0.000000 1.000000 -0.000000 222 184 135 255
-0.700456 0.018272 -0.605327 0.000000 1.000000 -0.000000 222 184 135 255
-0.820455 0.018272 0.464118 0.000000 1.000000 0.000000 222 184 135 255
-0.760455 0.018272 0.572673 0.000000 1.000000 0.000000 222 184 135 255
-0.820455 0.018272 0.464118 -1.000000 0.000000 0.000000 222 184 135 255
-0.820455 0.018272 -0.605327 -1.000000 0.000000 0.000000 222 184 135 255
-0.820455 -0.001728 -0.605327 -1.000000 0.000000 0.000000 222 184 135 255
-0.820455 -0.001728 0.464118 -1.000000 0.000000 0.000000 222 184 135 255
-0.760455 0.018272 0.572673 -0.875211 0.000000 0.483742 222 184 135 255
-0.820455 0.018272 0.464118 -0.875211 0.000000 0.483742 222 184 135 255
-0.820455 -0.001728 0.464118 -0.875211 0.000000 0.483742 222 184 135 255
-0.760455 -0.001728 0.572673 -0.875211 0.000000 0.483742 222 184 135 255
-0.700456 0.018272 0.464118 0.875214 -0.000000 0.483736 222 184 135 255
-0.760455 0.018272 0.572673 0.875214 -0.000000 0.483736 222 184 135 255
-0.760455 -0.001728 0.572673 0.875214 -0.000000 0.483736 222 184 135 255
-0.700456 -0.001728 0.464118 0.875214 0.000000 0.483736 222 184 135 255
-0.700456 0.018272 -0.605327 1.000000 -0.000000 0.000000 222 184 135 255
-0.700456 0.018272 0.464118 1.000000 -0.000000 0.000000 222 184 135 255
-0.700456 -0.001728 0.464118 1.000000 -0.000000 0.000000 222 184 135 255
-0.700456 -0.001728 -0.605327 1.000000 0.000000 0.000000 222 184 135 255
-0.820455 0.018272 -0.605327 0.000000 0.000000 -1.000000 222 184 135 255
-0.700456 0.018272 -0.605327 0.000000 0.000000 -1.000000 222 184 135 255
-0.700456 -0.001728 -0.605327 0.000000 0.000000 -1.000000 222 184 135 255
-0.820455 -0.001728 -0.605327 -0.000000 -0.000000 -1.000000 222 184 135 255
0.149544 -0.001728 0.464118 0.000000 -1.000000 0.000000 222 184 135 255
0.029544 -0.001728 0.464118 0.000000 -1.000000 0.000000 222 184 135 255
0.029544 -0.001728 -0.605327 0.000000 -1.000000 0.000000 222 184 135 255
0.149544 -0.001728 -0.605327 0.000000 -1.000000 0.000000 222 184 135 255
0.089544 -0.001728 0.572673 0.000000 -1.000000 0.000000 222 184 135 255
0.029544 0.018272 0.464118 0.000000 1.000000 -0.000000 222 184 135 255
0.149544 0.018272 0.464118 0.000000 1.000000 -0.000000 222 184 135 255
0.149544 0.018272 -0.605327 0.000000 1.000000 -0.000000 222 184 135 255
0.029544 0.018272 -0.605327 0.000000 1.000000 0.000000 222 184 135 255
0.089544 0.018272 0.572673 0.000000 1.000000 0.000000 222 184 135 255
0.029545 0.018272 0.464118 -1.000000 0.000000 0.000000 222 184 135 255
0.029545 0.018272 -0.605327 -1.000000 0.000000 0.000000 222 184 135 255
0.029545 -0.001728 -0.605327 -1.000000 0.000000 0.000000 222 184 135 255
0.029545 -0.001728 0.464118 -1.000000 0.000000 0.000000 222 184 135 255
0.089544 0.018272 0.572673 -0.875214 0.000000 0.483736 222 184 135 255
0.029545 0.018272 0.464118 -0.875214 0.000000 0.483736 222 184 135 255
0.029545 -0.001728 0.464118 -0.875214 0.000000 0.483736 222 184 135 255
0.089544 -0.001728 0.572673 -0.875214 0.000000 0.483736 222 184 135 255
0.149545 0.018272 0.464118 0.875207 -0.000000 0.483748 222 184 135 255
0.089544 0.018272 0.572673 0.875207 -0.000000 0.483748 222 184 135 255
0.089544 -0.001728 0.572673 0.875207 -0.000000 0.483748 222 184 135 255
0.149545 -0.001728 0.464118 0.875207 0.000000 0.483748 222 184 135 255
0.149545 0.018272 -0.605327 1.000000 -0.000000 0.000000 222 184 135 255
0.149545 0.018272 0.464118 1.000000 -0.000000 0.000000 222 184 135 255
0.149545 -0.001728 0.464118 1.000000 -0.000000 0.000000 222 184 135 255
0.149545 -0.001728 -0.605327 1.000000 0.000000 0.000000 222 184 135 255
0.029545 0.018272 -0.605327 0.000000 0.000000 -1.000000 222 184 135 255
0.149545 0.018272 -0.605327 0.000000 0.000000 -1.000000 222 184 135 255
0.149545 -0.001728 -0.605327 0.000000 0.000000 -1.000000 222 184 135 255
0.029545 -0.001728 -0.605327 -0.000000 -0.000000 -1.000000 222 184 135 255
0.659545 -0.001728 -0.605327 0.000000 -1.000000 0.000000 222 184 135 255
0.539545 -0.001728 0.464117 0.000000 -1.000000 0.000000 222 184 135 255
0.539545 -0.001728 -0.605327 0.000000 -1.000000 0.000000 222 184 135 255
0.659545 -0.001728 0.464117 0.000000 -1.000000 0.000000 222 184 135 255
0.599545 -0.001728 0.572673 0.000000 -1.000000 0.000000 222 184 135 255
0.539545 0.018272 -0.605327 0.000000 1.000000 -0.000000 222 184 135 255
0.659545 0.018272 0.464117 0.000000 1.000000 -0.000000 222 184 135 255
0.659545 0.018272 -0.605327 0.000000 1.000000 -0.000000 222 184 135 255
0.539545 0.018272 0.464117 0.000000 1.000000 0.000000 222 184 135 255
0.599545 0.018272 0.572673 0.000000 1.000000 0.000000 222 184 135 255
0.539545 0.018272 0.464118 -1.000000 0.000000 0.000000 222 184 135 255
0.539545 0.018272 -0.605327 -1.000000 0.000000 0.000000 222 184 135 255
0.539545 -0.001728 -0.605327 -1.000000 0.000000 0.000000 222 184 135 255
0.539545 -0.001728 0.464118 -1.000000 0.000000 0.000000 222 184 135 255
0.599545 0.018272 0.572673 -0.875211 0.000000 0.483742 222 184 135 255
0.539545 0.018272 0.464118 -0.875211 0.000000 0.483742 222 184 135 255
0.539545 -0.001728 0.464118 -0.875211 0.000000 0.483742 222 184 135 255
0.599545 -0.001728 0.572673 -0.875211 0.000000 0.483742 222 184 135 255
0.659545 0.018272 0.464118 0.875211 -0.000000 0.483742 222 184 135 255
0.599545 0.018272 0.572673 0.875211 -0.000000 0.483742 222 184 135 255
0.599545 -0.001728 0.572673 0.875211 -0.000000 0.483742 222 184 135 255
0.659545 -0.001728 0.464118 0.875211 0.000000 0.483742 222 184 135 255
0.659545 0.018272 -0.605327 1.000000 -0.000000 0.000000 222 184 135 255
0.659545 0.018272 0.464118 1.000000 -0.000000 0.000000 222 184 135 255
0.659545 -0.001728 0.464118 1.000000 -0.000000 0.000000 222 184 135 255
0.659545 -0.001728 -0.605327 1.000000 0.000000 0.000000 222 184 135 255
0.539545 0.018272 -0.605327 0.000000 0.000000 -1.000000 222 184 135 255
0.659545 0.018272 -0.605327 0.000000 0.000000 -1.000000 222 184 135 255
0.659545 -0.001728 -0.605327 0.000000 0.000000 -1.000000 222 184 135 255
0.539545 -0.001728 -0.605327 -0.000000 -0.000000 -1.000000 222 184 135 255
-0.190455 -0.001728 -0.605327 0.000000 -1.000000 0.000000 222 184 135 255
-0.310455 -0.001728 0.464118 0.000000 -1.000000 0.000000 222 184 135 255
-0.310455 -0.001728 -0.605327 0.000000 -1.000000 0.000000 222 184 135 255
-0.190455 -0.001728 0.464118 0.000000 -1.000000 0.000000 222 184 135 255
-0.250455 -0.001728 0.572673 0.000000 -1.000000 0.000000 222 184 135 255
-0.310455 0.018272 -0.605327 0.000000 1.000000 -0.000000 222 184 135 255
-0.190455 0.018272 0.464118 0.000000 1.000000 -0.000000 222 184 135 255
-0.190455 0.018272 -0.605327 0.000000 1.000000 -0.000000 222 184 135 255
-0.310455 0.018272 0.464118 0.000000 1.000000 0.000000 222 184 135 255
-0.250455 0.018272 0.572673 0.000000 1.000000 0.000000 222 184 135 255
-0.310455 0.018272 0.464118 -1.000000 0.000000 0.000000 222 184 135 255
-0.310455 0.018272 -0.605327 -1.000000 0.000000 0.000000 222 184 135 255
-0.310455 -0.001728 -0.605327 -1.000000 0.000000 0.000000 222 184 135 255
-0.310455 -0.001728 0.464118 -1.000000 0.000000 0.000000 222 184 135 255
-0.250455 0.018272 0.572673 -0.875211 0.000000 0.483742 222 184 135 255
-0.310455 0.018272 0.464118 -0.875211 0.000000 0.483742 222 184 135 255
-0.310455 -0.001728 0.464118 -0.875211 0.000000 0.483742 222 184 135 255
-0.250455 -0.001728 0.572673 -0.875211 0.000000 0.483742 222 184 135 255
-0.190455 0.018272 0.464118 0.875211 -0.000000 0.483742 222 184 135 255
-0.250455 0.018272 0.572673 0.875211 -0.000000 0.483742 222 184 135 255
-0.250455 -0.001728 0.572673 0.875211 -0.000000 0.483742 222 184 135 255
-0.190455 -0.001728 0.464118 0.875211 0.000000 0.483742 222 184 135 255
-0.190455 0.018272 -0.605327 1.000000 -0.000000 0.000000 222 184 135 255
-0.190455 0.018272 0.464118 1.000000 -0.000000 0.000000 222 184 135 255
-0.190455 -0.001728 0.464118 1.000000 -0.000000 0.000000 222 184 135 255
-0.190455 -0.001728 -0.605327 1.000000 0.000000 0.000000 222 184 135 255
-0.310455 0.018272 -0.605327 0.000000 0.000000 -1.000000 222 184 135 255
-0.190455 0.018272 -0.605327 0.000000 0.000000 -1.000000 222 184 135 255
-0.190455 -0.001728 -0.605327 0.000000 0.000000 -1.000000 222 184 135 255
-0.310455 -0.001728 -0.605327 -0.000000 -0.000000 -1.000000 222 184 135 255
0.999545 -0.001728 -0.605328 0.000000 -1.000000 0.000000 222 184 135 255
0.879545 -0.001728 0.464117 0.000000 -1.000000 0.000000 222 184 135 255
0.879545 -0.001728 -0.605328 0.000000 -1.000000 0.000000 222 184 135 255
0.999545 -0.001728 0.464117 0.000000 -1.000000 0.000000 222 184 135 255
0.939545 -0.001728 0.572672 0.000000 -1.000000 0.000000 222 184 135 255
0.879545 0.018272 -0.605328 0.000000 1.000000 -0.000000 222 184 135 255
0.999545 0.018272 0.464117 0.000000 1.000000 -0.000000 222 184 135 255
0.999545 0.018272 -0.605328 0.000000 1.000000 -0.000000 222 184 135 255
0.879545 0.018272 0.464117 0.000000 1.000000 0.000000 222 184 135 255
0.939545 0.018272 0.572672 0.000000 1.000000 0.000000 222 184 135 255
0.879545 0.018272 0.464118 -1.000000 0.000000 0.000000 222 184 135 255
0.879545 0.018272 -0.605327 -1.000000 0.000000 0.000000 222 184 135 255
0.879545 -0.001728 -0.605327 -1.000000 0.000000 0.000000 222 184 135 255
0.879545 -0.001728 0.464118 -1.000000 0.000000 0.000000 222 184 135 255
0.939545 0.018272 0.572673 -0.875211 0.000000 0.483742 222 184 135 255
0.879545 0.018272 0.464118 -0.875211 0.000000 0.483742 222 184 135 255
0.879545 -0.001728 0.464118 -0.875211 0.000000 0.483742 222 184 135 255
0.939545 -0.001728 0.572673 -0.875211 0.000000 0.483742 222 184 135 255
0.999545 0.018272 0.464118 0.875211 -0.000000 0.483742 222 184 135 255
0.939545 0.018272 0.572673 0.875211 -0.000000 0.483742 222 184 135 255
0.939545 -0.001728 0.572673 0.875211 -0.000000 0.483742 222 184 135 255
0.999545 -0.001728 0.464118 0.875211 0.000000 0.483742 222 184 135 255
0.999545 0.018272 -0.605327 1.000000 -0.000000 0.000000 222 184 135 255
0.999545 0.018272 0.464118 1.000000 -0.000000 0.000000 222 184 135 255
0.999545 -0.001728 0.464118 1.000000 -0.000000 0.000000 222 184 135 255
0.999545 -0.001728 -0.605327 1.000000 0.000000 0.000000 222 184 135 255
0.879545 0.018272 -0.605327 0.000000 0.000000 -1.000000 222 184 135 255
0.999545 0.018272 -0.605327 0.000000 0.000000 -1.000000 222 184 135 255
0.999545 -0.001728 -0.605327 0.000000 0.000000 -1.000000 222 184 135 255
0.879545 -0.001728 -0.605327 -0.000000 -0.000000 -1.000000 222 184 135 255
1.159545 -0.049252 -0.639620 0.000000 -1.000000 0.000000 222 184 135 255
1.159545 -0.049252 0.610380 0.000000 -1.000000 0.000000 222 184 135 255
1.049544 -0.049252 0.610380 0.000000 -1.000000 0.000000 222 184 135 255
1.049544 -0.049252 -0.639620 -0.000000 -1.000000 -0.000000 222 184 135 255
1.159545 0.050748 0.610380 0.000000 1.000000 0.000000 222 184 135 255
1.159545 0.050748 -0.639620 0.000000 1.000000 0.000000 222 184 135 255
1.049544 0.050748 -0.639620 0.000000 1.000000 0.000000 222 184 135 255
1.049544 0.050748 0.610380 0.000000 1.000000 -0.000000 222 184 135 255
1.159545 0.050748 0.610380 0.000000 0.000000 1.000000 222 184 135 255
1.049544 0.050748 0.610380 0.000000 0.000000 1.000000 222 184 135 255
1.049544 -0.049252 0.610380 0.000000 0.000000 1.000000 222 184 135 255
1.159545 -0.049252 0.610380 -0.000000 0.000000 1.000000 222 184 135 255
1.159545 0.050748 -0.639620 1.000000 -0.000000 0.000000 222 184 135 255
1.159545 0.050748 0.610380 1.000000 -0.000000 0.000000 222 184 135 255
1.159545 -0.049252 0.610380 1.000000 -0.000000 0.000000 222 184 135 255
1.159545 -0.049252 -0.639620 1.000000 0.000000 0.000000 222 184 135 255
1.049544 0.050748 -0.639620 0.000000 0.000000 -1.000000 222 184 135 255
1.159545 0.050748 -0.639620 0.000000 0.000000 -1.000000 222 184 135 255
1.159545 -0.049252 -0.639620 0.000000 0.000000 -1.000000 222 184 135 255
1.049544 -0.049252 -0.639620 -0.000000 -0.000000 -1.000000 222 184 135 255
1.049544 0.050748 0.610380 -1.000000 0.000000 0.000000 222 184 135 255
1.049544 0.050748 -0.639620 -1.000000 0.000000 0.000000 222 184 135 255
1.049544 -0.049252 -0.639620 -1.000000 0.000000 0.000000 222 184 135 255
1.049544 -0.049252 0.610380 -1.000000 0.000000 0.000000 222 184 135 255
-0.530456 -0.001728 -0.605327 0.000000 -1.000000 0.000000 222 184 135 255
-0.650455 -0.001728 0.464118 0.000000 -1.000000 0.000000 222 184 135 255
-0.650455 -0.001728 -0.605327 0.000000 -1.000000 0.000000 222 184 135 255
-0.530456 -0.001728 0.464118 0.000000 -1.000000 0.000000 222 184 135 255
-0.590455 -0.001728 0.572673 0.000000 -1.000000 0.000000 222 184 135 255
-0.650455 0.018272 -0.605327 0.000000 1.000000 -0.000000 222 184 135 255
-0.530456 0.018272 0.464118 0.000000 1.000000 -0.000000 222 184 135 255
-0.530456 0.018272 -0.605327 0.000000 1.000000 -0.000000 222 184 135 255
-0.650455 0.018272 0.464118 0.000000 1.000000 0.000000 222 184 135 255
-0.590455 0.018272 0.572673 0.000000 1.000000 0.000000 222 184 135 255
-0.650455 0.018272 0.464118 -1.000000 0.000000 0.000000 222 184 135 255
-0.650455 0.018272 -0.605327 -1.000000 0.000000 0.000000 222 184 135 255
-0.650455 -0.001728 -0.605327 -1.000000 0.000000 0.000000 222 184 135 255
-0.650455 -0.001728 0.464118 -1.000000 0.000000 0.000000 222 184 135 255
-0.590455 0.018272 0.572673 -0.875211 0.000000 0.483742 222 184 135 255
-0.650455 0.018272 0.464118 -0.875211 0.000000 0.483742 222 184 135 255
-0.650455 -0.001728 0.464118 -0.875211 0.000000 0.483742 222 184 135 255
-0.590455 -0.001728 0.572673 -0.875211 0.000000 0.483742 222 184 135 255
-0.530456 0.018272 0.464118 0.875214 -0.000000 0.483736 222 184 135 255
-0.590455 0.018272 0.572673 0.875214 -0.000000 0.483736 222 184 135 255
-0.590455 -0.001728 0.572673 0.875214 -0.000000 0.483736 222 184 135 255
-0.530456 -0.001728 0.464118 0.875214 0.000000 0.483736 222 184 135 255
-0.530456 0.018272 -0.605327 1.000000 -0.000000 0.000000 222 184 135 255
-0.530456 0.018272 0.464118 1.000000 -0.000000 0.000000 222 184 135 255
-0.530456 -0.001728 0.464118 1.000000 -0.000000 0.000000 222 184 135 255
-0.530456 -0.001728 -0.605327 1.000000 0.000000 0.000000 222 184 135 255
-0.650455 0.018272 -0.605327 0.000000 0.000000 -1.000000 222 184 135 255
-0.530456 0.018272 -0.605327 0.000000 0.000000 -1.000000 222 184 135 255
-0.530456 -0.001728 -0.605327 0.000000 0.000000 -1.000000 222 184 135 255
-0.650455 -0.001728 -0.605327 -0.000000 -0.000000 -1.000000 222 184 135 255
-0.870455 -0.001728 -0.605327 0.000000 -1.000000 0.000000 222 184 135 255
-0.990456 -0.001728 0.464118 0.000000 -1.000000 0.000000 222 184 135 255
-0.990456 -0.001728 -0.605327 0.000000 -1.000000 0.000000 222 184 135 255
-0.870455 -0.001728 0.464118 0.000000 -1.000000 0.000000 222 184 135 255
-0.930456 -0.001728 0.572673 0.000000 -1.000000 0.000000 222 184 135 255
-0.990456 0.018272 -0.605327 0.000000 1.000000 -0.000000 222 184 135 255
-0.870455 0.018272 0.464118 0.000000 1.000000 -0.000000 222 184 135 255
-0.870455 0.018272 -0.605327 0.000000 1.000000 -0.000000 222 184 135 255
-0.990456 0.018272 0.464118 0.000000 1.000000 0.000000 222 184 135 255
-0.930456 0.018272 0.572673 0.000000 1.000000 0.000000 222 184 135 255
-0.990456 0.018272 0.464118 -1.000000 0.000000 0.000000 222 184 135 255
-0.990456 0.018272 -0.605327 -1.000000 0.000000 0.000000 222 184 135 255
-0.990456 -0.001728 -0.605327 -1.000000 0.000000 0.000000 222 184 135 255
-0.990456 -0.001728 0.464118 -1.000000 0.000000 0.000000 222 184 135 255
-0.930456 0.018272 0.572673 -0.875211 0.000000 0.483742 222 184 135 255
-0.990456 0.018272 0.464118 -0.875211 0.000000 0.483742 222 184 135 255
-0.990456 -0.001728 0.464118 -0.875211 0.000000 0.483742 222 184 135 255
-0.930456 -0.001728 0.572673 -0.875211 0.000000 0.483742 222 184 135 255
-0.870455 0.018272 0.464118 0.875207 -0.000000 0.483748 222 184 135 255
-0.930456 0.018272 0.572673 0.875207 -0.000000 0.483748 222 184 135 255
-0.930456 -0.001728 0.572673 0.875207 -0.000000 0.483748 222 184 135 255
-0.870455 -0.001728 0.464118 0.875207 0.000000 0.483748 222 184 135 255
-0.870455 0.018272 -0.605327 1.000000 -0.000000 0.000000 222 184 135 255
-0.870455 0.018272 0.464118 1.000000 -0.000000 0.000000 222 184 135 255
-0.870455 -0.001728 0.464118 1.000000 -0.000000 0.000000 222 184 135 255
-0.870455 -0.001728 -0.605327 1.000000 0.000000 0.000000 222 184 135 255
-0.990456 0.018272 -0.605327 0.000000 0.000000 -1.000000 222 184 135 255
-0.870455 0.018272 -0.605327 0.000000 0.000000 -1.000000 222 184 135 255
-0.870455 -0.001728 -0.605327 0.000000 0.000000 -1.000000 222 184 135 255
-0.990456 -0.001728 -0.605327 -0.000000 -0.000000 -1.000000 222 184 135 255
0.829545 -0.001728 -0.605327 0.000000 -1.000000 0.000000 222 184 135 255
0.709545 -0.001728 0.464118 0.000000 -1.000000 0.000000 222 184 135 255
0.709545 -0.001728 -0.605327 0.000000 -1.000000 0.000000 222 184 135 255
0.829545 -0.001728 0.464118 0.000000 -1.000000 0.000000 222 184 135 255
0.769545 -0.001728 0.572673 0.000000 -1.000000 0.000000 222 184 135 255
0.709545 0.018272 -0.605327 0.000000 1.000000 -0.000000 222 184 135 255
0.829545 0.018272 0.464118 0.000000 1.000000 -0.000000 222 184 135 255
0.829545 0.018272 -0.605327 0.000000 1.000000 -0.000000 222 184 135 255
0.709545 0.018272 0.464118 0.000000 1.000000 0.000000 222 184 135 255
0.769545 0.018272 0.572673 0.000000 1.000000 0.000000 222 184 135 255
0.709545 0.018272 0.464118 -1.000000 0.000000 0.000000 222 184 135 255
0.709545 0.018272 -0.605327 -1.000000 0.000000 0.000000 222 184 135 255
0.709545 -0.001728 -0.605327 -1.000000 0.000000 0.000000 222 184 135 255
0.709545 -0.001728 0.464118 -1.000000 0.000000 0.000000 222 184 135 255
0.769545 0.018272 0.572673 -0.875211 0.000000 0.483742 222 184 135 255
0.709545 0.018272 0.464118 -0.875211 0.000000 0.483742 222 184 135 255
0.709545 -0.001728 0.464118 -0.875211 0.000000 0.483742 222 184 135 255
0.769545 -0.001728 0.572673 -0.875211 0.000000 0.483742 222 184 135 255
0.829545 0.018272 0.464118 0.875211 -0.000000 0.483742 222 184 135 255
0.769545 0.018272 0.572673 0.875211 -0.000000 0.483742 222 184 135 255
0.769545 -0.001728 0.572673 0.875211 -0.000000 0.483742 222 184 135 255
0.829545 -0.001728 0.464118 0.875211 0.000000 0.483742 222 184 135 255
0.829545 0.018272 -0.605327 1.000000 -0.000000 0.000000 222 184 135 255
0.829545 0.018272 0.464118 1.000000 -0.000000 0.000000 222 184 135 255
0.829545 -0.001728 0.464118 1.000000 -0.000000 0.000000 222 184 135 255
0.829545 -0.001728 -0.605327 1.000000 0.000000 0.000000 222 184 135 255
0.709545 0.018272 -0.605327 0.000000 0.000000 -1.000000 222 184 135 255
0.829545 0.018272 -0.605327 0.000000 0.000000 -1.000000 222 184 135 255
0.829545 -0.001728 -0.605327 0.000000 0.000000 -1.000000 222 184 135 255
0.709545 -0.001728 -0.605327 -0.000000 -0.000000 -1.000000 222 184 135 255
0.319544 -0.001728 -0.605327 0.000000 -1.000000 0.000000 222 184 135 255
0.199545 -0.001728 0.464118 0.000000 -1.000000 0.000000 222 184 135 255
0.199545 -0.001728 -0.605327 0.000000 -1.000000 0.000000 222 184 135 255
0.319544 -0.001728 0.464118 0.000000 -1.000000 0.000000 222 184 135 255
0.259544 -0.001728 0.572673 0.000000 -1.000000 0.000000 222 184 135 255
0.199545 0.018272 -0.605327 0.000000 1.000000 -0.000000 222 184 135 255
0.319544 0.018272 0.464118 0.000000 1.000000 -0.000000 222 184 135 255
0.319544 0.018272 -0.605327 0.000000 1.000000 -0.000000 222 184 135 255
0.199545 0.018272 0.464118 0.000000 1.000000 0.000000 222 184 135 255
0.259544 0.018272 0.572673 0.000000 1.000000 0.000000 222 184 135 255
0.199545 0.018272 0.464118 -1.000000 0.000000 0.000000 222 184 135 255
0.199545 0.018272 -0.605327 -1.000000 0.000000 0.000000 222 184 135 255
0.199545 -0.001728 -0.605327 -1.000000 0.000000 0.000000 222 184 135 255
0.199545 -0.001728 0.464118 -1.000000 0.000000 0.000000 222 184 135 255
0.259544 0.018272 0.572673 -0.875214 0.000000 0.483736 222 184 135 255
0.199545 0.018272 0.464118 -0.875214 0.000000 0.483736 222 184 135 255
0.199545 -0.001728 0.464118 -0.875214 0.000000 0.483736 222 184 135 255
0.259544 -0.001728 0.572673 -0.875214 0.000000 0.483736 222 184 135 255
0.319544 0.018272 0.464118 0.875211 -0.000000 0.483742 222 184 135 255
0.259544 0.018272 0.572673 0.875211 -0.000000 0.483742 222 184 135 255
0.259544 -0.001728 0.572673 0.875211 -0.000000 0.483742 222 184 135 255
0.319544 -0.001728 0.464118 0.875211 0.000000 0.483742 222 184 135 255
0.319544 0.018272 -0.605327 1.000000 -0.000000 0.000000 222 184 135 255
0.319544 0.018272 0.464118 1.000000 -0.000000 0.000000 222 184 135 255
0.319544 -0.001728 0.464118 1.000000 -0.000000 0.000000 222 184 135 255
0.319544 -0.001728 -0.605327 1.000000 0.000000 0.000000 222 184 135 255
0.199545 0.018272 -0.605327 0.000000 0.000000 -1.000000 222 184 135 255
0.319544 0.018272 -0.605327 0.000000 0.000000 -1.000000 222 184 135 255
0.319544 -0.001728 -0.605327 0.000000 0.000000 -1.000000 222 184 135 255
0.199545 -0.001728 -0.605327 -0.000000 -0.000000 -1.000000 222 184 135 255
-0.020455 -0.001728 0.464118 0.000000 -1.000000 0.000000 222 184 135 255
-0.140456 -0.001728 0.464118 0.000000 -1.000000 0.000000 222 184 135 255
-0.140456 -0.001728 -0.605327 0.000000 -1.000000 0.000000 222 184 135 255
-0.020455 -0.001728 -0.605327 0.000000 -1.000000 0.000000 222 184 135 255
-0.080455 -0.001728 0.572673 0.000000 -1.000000 0.000000 222 184 135 255
-0.140456 0.018272 0.464118 0.000000 1.000000 -0.000000 222 184 135 255
-0.020455 0.018272 0.464118 0.000000 1.000000 -0.000000 222 184 135 255
-0.020455 0.018272 -0.605327 0.000000 1.000000 -0.000000 222 184 135 255
-0.140456 0.018272 -0.605327 0.000000 1.000000 0.000000 222 184 135 255
-0.080455 0.018272 0.572673 0.000000 1.000000 0.000000 222 184 135 255
-0.140456 0.018272 0.464118 -1.000000 0.000000 0.000000 222 184 135 255
-0.140456 0.018272 -0.605327 -1.000000 0.000000 0.000000 222 184 135 255
-0.140456 -0.001728 -0.605327 -1.000000 0.000000 0.000000 222 184 135 255
-0.140456 -0.001728 0.464118 -1.000000 0.000000 0.000000 222 184 135 255
-0.080455 0.018272 0.572673 -0.875207 0.000000 0.483748 222 184 135 255
-0.140456 0.018272 0.464118 -0.875207 0.000000 0.483748 222 184 135 255
-0.140456 -0.001728 0.464118 -0.875207 0.000000 0.483748 222 184 135 255
-0.080455 -0.001728 0.572673 -0.875207 0.000000 0.483748 222 184 135 255
-0.020455 0.018272 0.464118 0.875211 -0.000000 0.483742 222 184 135 255
-0.080455 0.018272 0.572673 0.875211 -0.000000 0.483742 222 184 135 255
-0.080455 -0.001728 0.572673 0.875211 -0.000000 0.483742 222 184 135 255
-0.020455 -0.001728 0.464118 0.875211 0.000000 0.483742 222 184 135 255
-0.020455 0.018272 -0.605327 1.000000 -0.000000 0.000000 222 184 135 255
-0.020455 0.018272 0.464118 1.000000 -0.000000 0.000000 222 184 135 255
-0.020455 -0.001728 0.464118 1.000000 -0.000000 0.000000 222 184 135 255
-0.020455 -0.001728 -0.605327 1.000000 0.000000 0.000000 222 184 135 255
-0.140456 0.018272 -0.605327 0.000000 0.000000 -1.000000 222 184 135 255
-0.020455 0.018272 -0.605327 0.000000 0.000000 -1.000000 222 184 135 255
-0.020455 -0.001728 -0.605327 0.000000 0.000000 -1.000000 222 184 135 255
-0.140456 -0.001728 -0.605327 -0.000000 -0.000000 -1.000000 222 184 135 255
0.489544 -0.001728 -0.605326 0.000000 -1.000000 0.000000 222 184 135 255
0.369544 -0.001728 0.464118 0.000000 -1.000000 0.000000 222 184 135 255
0.369544 -0.001728 -0.605326 0.000000 -1.000000 0.000000 222 184 135 255
0.489544 -0.001728 0.464118 0.000000 -1.000000 0.000000 222 184 135 255
0.429544 -0.001728 0.572673 0.000000 -1.000000 0.000000 222 184 135 255
0.369544 0.018272 -0.605326 0.000000 1.000000 -0.000000 222 184 135 255
0.489544 0.018272 0.464118 0.000000 1.000000 -0.000000 222 184 135 255
0.489544 0.018272 -0.605326 0.000000 1.000000 -0.000000 222 184 135 255
0.369544 0.018272 0.464118 0.000000 1.000000 0.000000 222 184 135 255
0.429544 0.018272 0.572673 0.000000 1.000000 0.000000 222 184 135 255
0.369545 0.018272 0.464118 -1.000000 0.000000 0.000000 222 184 135 255
0.369545 0.018272 -0.605327 -1.000000 0.000000 0.000000 222 184 135 255
0.369545 -0.001728 -0.605327 -1.000000 0.000000 0.000000 222 184 135 255
0.369545 -0.001728 0.464118 -1.000000 0.000000 0.000000 222 184 135 255
0.429545 0.018272 0.572673 -0.875211 0.000000 0.483742 222 184 135 255
0.369545 0.018272 0.464118 -0.875211 0.000000 0.483742 222 184 135 255
0.369545 -0.001728 0.464118 -0.875211 0.000000 0.483742 222 184 135 255
0.429545 -0.001728 0.572673 -0.875211 0.000000 0.483742 222 184 135 255
0.489545 0.018272 0.464118 0.875211 -0.000000 0.483742 222 184 135 255
0.429545 0.018272 0.572673 0.875211 -0.000000 0.483742 222 184 135 255
0.429545 -0.001728 0.572673 0.875211 -0.000000 0.483742 222 184 135 255
0.489545 -0.001728 0.464118 0.875211 0.000000 0.483742 222 184 135 255
0.489545 0.018272 -0.605327 1.000000 -0.000000 0.000000 222 184 135 255
0.489545 0.018272 0.464118 1.000000 -0.000000 0.000000 222 184 135 255
0.489545 -0.001728 0.464118 1.000000 -0.000000 0.000000 222 184 135 255
0.489545 -0.001728 -0.605327 1.000000 0.000000 0.000000 222 184 135 255
0.369545 0.018272 -0.605327 0.000000 0.000000 -1.000000 222 184 135 255
0.489545 0.018272 -0.605327 0.000000 0.000000 -1.000000 222 184 135 255
0.489545 -0.001728 -0.605327 0.000000 0.000000 -1.000000 222 184 135 255
0.369545 -0.001728 -0.605327 -0.000000 -0.000000 -1.000000 222 184 135 255
-0.360456 -0.001728 -0.605327 0.000000 -1.000000 0.000000 222 184 135 255
-0.480456 -0.001728 0.464118 0.000000 -1.000000 0.000000 222 184 135 255
-0.480456 -0.001728 -0.605327 0.000000 -1.000000 0.000000 222 184 135 255
-0.360456 -0.001728 0.464118 0.000000 -1.000000 0.000000 222 184 135 255
-0.420456 -0.001728 0.572673 0.000000 -1.000000 0.000000 222 184 135 255
-0.480456 0.018272 -0.605327 0.000000 1.000000 -0.000000 222 184 135 255
-0.360456 0.018272 0.464118 0.000000 1.000000 -0.000000 222 184 135 255
-0.360456 0.018272 -0.605327 0.000000 1.000000 -0.000000 222 184 135 255
-0.480456 0.018272 0.464118 0.000000 1.000000 0.000000 222 184 135 255
-0.420456 0.018272 0.572673 0.000000 1.000000 0.000000 222 184 135 255
-0.480455 0.018272 0.464118 -1.000000 0.000000 0.000000 222 184 135 255
-0.480455 0.018272 -0.605327 -1.000000 0.000000 0.000000 222 184 135 255
-0.480455 -0.001728 -0.605327 -1.000000 0.000000 0.000000 222 184 135 255
-0.480455 -0.001728 0.464118 -1.000000 0.000000 0.000000 222 184 135 255
-0.420455 0.018272 0.572673 -0.875211 0.000000 0.483742 222 184 135 255
-0.480455 0.018272 0.464118 -0.875211 0.000000 0.483742 222 184 135 255
-0.480455 -0.001728 0.464118 -0.875211 0.000000 0.483742 222 184 135 255
-0.420455 -0.001728 0.572673 -0.875211 0.000000 0.483742 222 184 135 255
-0.360455 0.018272 0.464118 0.875211 -0.000000 0.483742 222 184 135 255
-0.420455 0.018272 0.572673 0.875211 -0.000000 0.483742 222 184 135 255
-0.420455 -0.001728 0.572673 0.875211 -0.000000 0.483742 222 184 135 255
-0.360455 -0.001728 0.464118 0.875211 0.000000 0.483742 222 184 135 255
-0.360455 0.018272 -0.605327 1.000000 -0.000000 0.000000 222 184 135 255
-0.360455 0.018272 0.464118 1.000000 -0.000000 0.000000 222 184 135 255
-0.360455 -0.001728 0.464118 1.000000 -0.000000 0.000000 222 184 135 255
-0.360455 -0.001728 -0.605327 1.000000 0.000000 0.000000 222 184 135 255
-0.480455 0.018272 -0.605327 0.000000 0.000000 -1.000000 222 184 135 255
-0.360455 0.018272 -0.605327 0.000000 0.000000 -1.000000 222 184 135 255
-0.360455 -0.001728 -0.605327 0.000000 0.000000 -1.000000 222 184 135 255
-0.480455 -0.001728 -0.605327 -0.000000 -0.000000 -1.000000 222 184 135 255
3 0 1 2
3 3 0 2
3 4 5 6
3 7 4 6
3 8 9 10
3 11 8 10
3 12 13 14
3 15 12 14
3 16 17 18
3 19 16 18
3 20 21 22
3 23 20 22
3 24 25 26
3 27 24 26
3 28 29 30
3 31 28 30
3 32 33 34
3 35 32 34
3 36 37 38
3 39 36 38
3 40 41 42
3 43 40 42
3 44 45 46
3 47 44 46
3 48 49 50
3 51 48 50
3 52 53 54
3 55 52 54
3 56 57 58
3 59 56 58
3 60 61 62
3 63 60 62
3 64 65 66
3 67 64 66
3 68 69 70
3 71 68 70
3 72 73 74
3 75 72 74
3 76 77 78
3 79 76 78
3 80 81 82
3 83 80 82
3 84 85 86
3 87 84 86
3 88 89 90
3 91 88 90
3 92 93 94
3 95 92 94
3 96 97 98
3 99 96 98
3 100 101 102
3 103 100 102
3 104 105 106
3 107 104 106
3 108 109 110
3 111 108 110
3 112 113 114
3 115 112 114
3 116 117 118
3 119 116 118
3 120 121 122
3 123 120 122
3 124 125 126
3 127 124 126
3 128 129 130
3 131 128 130
3 132 133 134
3 135 132 134
3 136 137 138
3 139 136 138
3 140 141 142
3 143 140 142
3 144 145 146
3 147 144 146
3 148 149 150
3 151 148 150
3 152 153 154
3 155 152 154
3 156 157 158
3 159 156 158
3 160 161 162
3 163 160 162
3 164 165 166
3 167 164 166
3 168 169 170
3 171 172 169
3 168 171 169
3 173 174 175
3 176 177 174
3 173 176 174
3 178 179 180
3 181 178 180
3 182 183 184
3 185 182 184
3 186 187 188
3 189 186 188
3 190 191 192
3 193 190 192
3 194 195 196
3 197 194 196
3 198 199 200
3 201 198 200
3 198 202 199
3 203 204 205
3 206 203 205
3 203 207 204
3 208 209 210
3 211 208 210
3 212 213 214
3 215 212 214
3 216 217 218
3 219 216 218
3 220 221 222
3 223 220 222
3 224 225 226
3 227 224 226
3 228 229 230
3 231 232 229
3 228 231 229
3 233 234 235
3 236 237 234
3 233 236 234
3 238 239 240
3 241 238 240
3 242 243 244
3 245 242 244
3 246 247 248
3 249 246 248
3 250 251 252
3 253 250 252
3 254 255 256
3 257 254 256
3 258 259 260
3 261 262 259
3 258 261 259
3 263 264 265
3 266 267 264
3 263 266 264
3 268 269 270
3 271 268 270
3 272 273 274
3 275 272 274
3 276 277 278
3 279 276 278
3 280 281 282
3 283 280 282
3 284 285 286
3 287 284 286
3 288 289 290
3 291 292 289
3 288 291 289
3 293 294 295
3 296 297 294
3 293 296 294
3 298 299 300
3 301 298 300
3 302 303 304
3 305 302 304
3 306 307 308
3 309 306 308
3 310 311 312
3 313 310 312
3 314 315 316
3 317 314 316
3 318 319 320
3 321 318 320
3 322 323 324
3 325 322 324
3 326 327 328
3 329 326 328
3 330 331 332
3 333 330 332
3 334 335 336
3 337 334 336
3 338 339 340
3 341 338 340
3 342 343 344
3 345 346 343
3 342 345 343
3 347 348 349
3 350 351 348
3 347 350 348
3 352 353 354
3 355 352 354
3 356 357 358
3 359 356 358
3 360 361 362
3 363 360 362
3 364 365 366
3 367 364 366
3 368 369 370
3 371 368 370
3 372 373 374
3 375 376 373
3 372 375 373
3 377 378 379
3 380 381 378
3 377 380 378
3 382 383 384
3 385 382 384
3 386 387 388
3 389 386 388
3 390 391 392
3 393 390 392
3 394 395 396
3 397 394 396
3 398 399 400
3 401 398 400
3 402 403 404
3 405 406 403
3 402 405 403
3 407 408 409
3 410 411 408
3 407 410 408
3 412 413 414
3 415 412 414
3 416 417 418
3 419 416 418
3 420 421 422
3 423 420 422
3 424 425 426
3 427 424 426
3 428 429 430
3 431 428 430
3 432 433 434
3 435 436 433
3 432 435 433
3 437 438 439
3 440 441 438
3 437 440 438
3 442 443 444
3 445 442 444
3 446 447 448
3 449 446 448
3 450 451 452
3 453 450 452
3 454 455 456
3 457 454 456
3 458 459 460
3 461 458 460
3 462 463 464
3 465 462 464
3 462 466 463
3 467 468 469
3 470 467 469
3 467 471 468
3 472 473 474
3 475 472 474
3 476 477 478
3 479 476 478
3 480 481 482
3 483 480 482
3 484 485 486
3 487 484 486
3 488 489 490
3 491 488 490
3 492 493 494
3 495 496 493
3 492 495 493
3 497 498 499
3 500 501 498
3 497 500 498
3 502 503 504
3 505 502 504
3 506 507 508
3 509 506 508
3 510 511 512
3 513 510 512
3 514 515 516
3 517 514 516
3 518 519 520
3 521 518 520
3 522 523 524
3 525 526 523
3 522 525 523
3 527 528 529
3 530 531 528
3 527 530 528
3 532 533 534
3 535 532 534
3 536 537 538
3 539 536 538
3 540 541 542
3 543 540 542
3 544 545 546
3 547 544 546
3 548 549 550
3 551 548 550
