ply
format ascii 1.0
comment Created by Blender 2.82 (sub 7) - www.blender.org, source file: ''
element vertex 382
property float x
property float y
property float z
property float nx
property float ny
property float nz
property uchar red
property uchar green
property uchar blue
property uchar alpha
element face 150
property list uchar uint vertex_indices
end_header
-0.003105 -0.016189 0.062363 0.079525 0.996463 -0.027155 48 48 48 255
-0.006547 -0.016344 0.046595 0.079525 0.996463 -0.027155 48 48 48 255
-0.010524 -0.015621 0.061479 0.079525 0.996463 -0.027155 48 48 48 255
0.007633 -0.008849 0.019630 0.783031 -0.621932 0.007949 48 48 48 255
0.008680 -0.006986 0.062253 0.783031 -0.621932 0.007949 48 48 48 255
0.004086 -0.012770 0.062252 0.783031 -0.621932 0.007949 48 48 48 255
0.007633 -0.008849 0.019630 0.726372 -0.687297 -0.002779 48 48 48 255
0.004086 -0.012770 0.062252 0.726372 -0.687297 -0.002779 48 48 48 255
0.003240 -0.013486 0.018206 0.726372 -0.687297 -0.002779 48 48 48 255
0.003240 -0.013486 0.018206 0.441344 -0.897317 0.006110 48 48 48 255
0.004086 -0.012770 0.062252 0.441344 -0.897317 0.006110 48 48 48 255
-0.003091 -0.016300 0.062252 0.441344 -0.897317 0.006110 48 48 48 255
-0.006917 -0.016348 0.017325 -0.104926 -0.994430 0.009998 48 48 48 255
-0.003091 -0.016300 0.062252 -0.104926 -0.994430 0.009998 48 48 48 255
-0.011071 -0.015458 0.062252 -0.104926 -0.994430 0.009998 48 48 48 255
-0.012107 -0.015120 0.017704 -0.518333 -0.855161 0.005566 48 48 48 255
-0.011071 -0.015458 0.062252 -0.518333 -0.855161 0.005566 48 48 48 255
-0.017342 -0.011657 0.062252 -0.518333 -0.855161 0.005566 48 48 48 255
-0.021531 -0.003728 0.062251 -0.884066 -0.467063 0.016704 48 48 48 255
-0.020232 -0.007289 0.031431 -0.884066 -0.467063 0.016704 48 48 48 255
-0.017342 -0.011657 0.062252 -0.884066 -0.467063 0.016704 48 48 48 255
-0.020774 0.005055 0.062252 -0.996074 0.085849 0.021613 48 48 48 255
-0.021733 0.000947 0.034372 -0.996074 0.085849 0.021613 48 48 48 255
-0.021531 -0.003728 0.062251 -0.996074 0.085849 0.021613 48 48 48 255
-0.016930 0.010923 0.062253 -0.836464 0.547948 0.008987 48 48 48 255
-0.019462 0.007598 0.029315 -0.836464 0.547948 0.008987 48 48 48 255
-0.020774 0.005055 0.062252 -0.836464 0.547948 0.008987 48 48 48 255
0.004835 0.011092 0.018616 0.657923 0.753034 0.008827 48 48 48 255
0.001514 0.013482 0.062256 0.657923 0.753034 0.008827 48 48 48 255
0.006850 0.008820 0.062252 0.657923 0.753034 0.008827 48 48 48 255
0.009007 0.004946 0.019670 0.932682 0.360410 0.014456 48 48 48 255
0.006850 0.008820 0.062252 0.932682 0.360410 0.014456 48 48 48 255
0.009948 0.000803 0.062249 0.932682 0.360410 0.014456 48 48 48 255
0.008680 -0.006986 0.062253 0.986217 -0.160529 0.040067 48 48 48 255
0.009775 -0.002455 0.053454 0.986217 -0.160529 0.040067 48 48 48 255
0.009948 0.000803 0.062249 0.986217 -0.160529 0.040067 48 48 48 255
0.032945 0.024924 0.008552 0.000000 0.000000 -1.000000 48 48 48 255
0.027995 0.020624 0.008552 0.000000 0.000000 -1.000000 48 48 48 255
0.009234 0.020168 0.008552 0.000000 0.000000 -1.000000 48 48 48 255
-0.020905 0.020624 0.008552 0.000000 0.000000 -1.000000 48 48 48 255
-0.038905 0.020624 0.008552 0.000000 0.000000 -1.000000 48 48 48 255
-0.043805 0.024924 0.008552 0.000000 0.000000 -1.000000 48 48 48 255
-0.001702 0.014916 0.008552 0.000000 0.000000 -1.000000 48 48 48 255
0.006917 0.009086 0.008552 0.000000 0.000000 -1.000000 48 48 48 255
-0.018837 -0.009665 0.008552 0.000000 0.000000 -1.000000 48 48 48 255
0.007095 -0.009413 0.008552 -0.000000 0.000000 -1.000000 48 48 48 255
-0.020746 -0.021359 0.008552 0.000000 0.000000 -1.000000 48 48 48 255
0.032945 -0.025966 0.008552 0.000000 0.000000 -1.000000 48 48 48 255
-0.043805 -0.025966 0.008552 0.000000 0.000000 -1.000000 48 48 48 255
-0.021572 0.004345 0.008552 -0.000000 0.000000 -1.000000 48 48 48 255
-0.013089 0.013945 0.008552 -0.000000 0.000000 -1.000000 48 48 48 255
-0.022679 -0.021947 0.008552 -0.000000 0.000000 -1.000000 48 48 48 255
-0.013089 0.013945 0.008552 0.000000 0.000000 -1.000000 48 48 48 255
-0.045955 -0.011771 0.008552 -0.000000 -0.000000 -1.000000 48 48 48 255
-0.045955 0.010729 0.008552 -0.000000 -0.000000 -1.000000 48 48 48 255
-0.038905 -0.021666 0.008552 -0.000000 -0.000000 -1.000000 48 48 48 255
0.011995 0.001379 0.008552 0.000000 0.000000 -1.000000 48 48 48 255
0.009545 -0.021666 0.008552 -0.000000 0.000000 -1.000000 48 48 48 255
0.027995 -0.021666 0.008552 0.000000 0.000000 -1.000000 48 48 48 255
-0.043805 0.008424 0.019417 -1.000000 0.000000 0.000000 48 48 48 255
-0.043805 0.026143 0.012206 -1.000000 0.000000 0.000000 48 48 48 255
-0.043805 0.011124 0.008862 -1.000000 0.000000 0.000000 48 48 48 255
-0.043805 -0.011771 0.012552 -1.000000 -0.000000 0.000000 48 48 48 255
-0.043805 -0.001282 0.019551 -1.000000 -0.000000 0.000000 48 48 48 255
-0.043805 0.010729 0.012552 -1.000000 -0.000000 0.000000 48 48 48 255
0.044108 -0.001678 0.010452 0.000000 0.000000 -1.000000 48 48 48 255
0.037409 0.001707 0.010452 0.000000 0.000000 -1.000000 48 48 48 255
0.033265 0.025594 0.010452 0.000000 0.000000 -1.000000 48 48 48 255
0.033431 -0.026672 0.010452 0.000000 0.000000 -1.000000 48 48 48 255
0.037082 -0.002702 0.010452 -0.000000 0.000000 -1.000000 48 48 48 255
0.033751 0.026047 0.013926 0.000032 0.301835 0.953360 48 48 48 255
-0.043805 0.026049 0.013928 0.000032 0.301835 0.953360 48 48 48 255
-0.007076 0.015246 0.017347 0.000032 0.301835 0.953360 48 48 48 255
-0.043805 0.008424 0.019417 -0.001958 0.297346 0.954768 48 48 48 255
-0.018991 0.008414 0.019471 -0.001958 0.297346 0.954768 48 48 48 255
-0.043805 0.026049 0.013928 -0.001958 0.297346 0.954768 48 48 48 255
0.033751 0.026047 0.013926 0.017309 0.275125 0.961253 48 48 48 255
0.007626 0.007793 0.019621 0.017309 0.275125 0.961253 48 48 48 255
0.024369 0.006827 0.019596 0.017309 0.275125 0.961253 48 48 48 255
0.033751 -0.027093 0.013924 0.000034 -0.301646 0.953420 48 48 48 255
-0.006917 -0.016348 0.017325 0.000034 -0.301646 0.953420 48 48 48 255
-0.043805 -0.027086 0.013929 0.000034 -0.301646 0.953420 48 48 48 255
-0.016612 -0.012230 0.018593 -0.001584 -0.296892 0.954910 48 48 48 255
-0.043805 -0.009470 0.019406 -0.001584 -0.296892 0.954910 48 48 48 255
-0.043805 -0.027086 0.013929 -0.001584 -0.296892 0.954910 48 48 48 255
0.024394 -0.007850 0.019558 0.020334 -0.271809 0.962136 48 48 48 255
0.007633 -0.008849 0.019630 0.020334 -0.271809 0.962136 48 48 48 255
0.033751 -0.027093 0.013924 0.020334 -0.271809 0.962136 48 48 48 255
0.033751 0.026047 0.013926 0.295963 0.134510 0.945681 48 48 48 255
0.024369 0.006827 0.019596 0.295963 0.134510 0.945681 48 48 48 255
0.039484 0.006613 0.014896 0.295963 0.134510 0.945681 48 48 48 255
0.039427 -0.007637 0.014916 0.294112 -0.134053 0.946323 48 48 48 255
0.024394 -0.007850 0.019558 0.294112 -0.134053 0.946323 48 48 48 255
0.033751 -0.027093 0.013924 0.294112 -0.134053 0.946323 48 48 48 255
0.036913 -0.002918 0.015052 -0.000000 0.000000 1.000000 48 48 48 255
0.036205 0.000385 0.015052 -0.000000 0.000000 1.000000 48 48 48 255
0.034026 -0.000521 0.015052 -0.000000 0.000000 1.000000 48 48 48 255
0.041094 -0.001206 0.015052 0.000000 -0.000000 1.000000 48 48 48 255
0.043264 -0.000521 0.015052 0.000000 -0.000000 1.000000 48 48 48 255
0.040396 0.001884 0.015052 0.000000 -0.000000 1.000000 48 48 48 255
-0.038905 0.001514 0.017940 0.109661 -0.244559 -0.963413 48 48 48 255
-0.038905 0.020624 0.013089 0.109661 -0.244559 -0.963413 48 48 48 255
-0.031944 0.004982 0.017852 0.109661 -0.244559 -0.963413 48 48 48 255
-0.031944 0.004982 0.017852 -0.000000 -0.291295 -0.956633 48 48 48 255
-0.038905 0.020624 0.013089 -0.000000 -0.291295 -0.956633 48 48 48 255
-0.022905 0.020624 0.013089 -0.000000 -0.291295 -0.956633 48 48 48 255
-0.031944 0.004982 0.017852 -0.000097 -0.291244 -0.956649 48 48 48 255
-0.022905 0.020624 0.013089 -0.000097 -0.291244 -0.956649 48 48 48 255
-0.022905 0.004979 0.017852 -0.000097 -0.291244 -0.956649 48 48 48 255
-0.022905 0.001577 0.018177 -1.000000 0.000000 0.000000 48 48 48 255
-0.022905 0.020912 0.010705 -1.000000 0.000000 0.000000 48 48 48 255
-0.022905 0.001379 0.008552 -1.000000 0.000000 0.000000 48 48 48 255
-0.038905 0.001514 0.017940 1.000000 0.000000 -0.000000 48 48 48 255
-0.038905 0.001379 0.008552 1.000000 0.000000 -0.000000 48 48 48 255
-0.038905 0.020899 0.010716 1.000000 0.000000 -0.000000 48 48 48 255
-0.022905 -0.006021 0.017852 -0.006798 0.291238 -0.956627 48 48 48 255
-0.022905 -0.021666 0.013089 -0.006798 0.291238 -0.956627 48 48 48 255
-0.029766 -0.006214 0.017842 -0.006798 0.291238 -0.956627 48 48 48 255
-0.029766 -0.006214 0.017842 0.000000 0.294003 -0.955804 48 48 48 255
-0.022905 -0.021666 0.013089 0.000000 0.294003 -0.955804 48 48 48 255
-0.038905 -0.021666 0.013089 0.000000 0.294003 -0.955804 48 48 48 255
-0.029766 -0.006214 0.017842 0.085287 0.246506 -0.965381 48 48 48 255
-0.038905 -0.021666 0.013089 0.085287 0.246506 -0.965381 48 48 48 255
-0.038905 -0.002680 0.017937 0.085287 0.246506 -0.965381 48 48 48 255
-0.022905 -0.002619 0.018177 -1.000000 0.000000 0.000000 48 48 48 255
-0.022905 -0.002421 0.008552 -1.000000 0.000000 0.000000 48 48 48 255
-0.022905 -0.021954 0.010705 -1.000000 0.000000 0.000000 48 48 48 255
-0.038905 -0.002680 0.017937 1.000000 -0.000000 -0.000000 48 48 48 255
-0.038905 -0.021942 0.010715 1.000000 -0.000000 -0.000000 48 48 48 255
-0.038905 -0.002421 0.008552 1.000000 -0.000000 -0.000000 48 48 48 255
-0.016439 0.012680 0.015513 -0.000253 -0.291923 -0.956442 48 48 48 255
-0.018905 0.020624 0.013089 -0.000253 -0.291923 -0.956442 48 48 48 255
0.005391 0.011794 0.015778 -0.000253 -0.291923 -0.956442 48 48 48 255
0.005391 0.011794 0.015778 -0.000000 -0.291286 -0.956636 48 48 48 255
-0.018905 0.020624 0.013089 -0.000000 -0.291286 -0.956636 48 48 48 255
0.007095 0.020624 0.013089 -0.000000 -0.291286 -0.956636 48 48 48 255
0.007095 0.008371 0.016819 -0.999733 0.006730 0.022108 48 48 48 255
0.007095 0.020624 0.013089 -0.999733 0.006730 0.022108 48 48 48 255
0.006917 0.009086 0.008552 -0.999733 0.006730 0.022108 48 48 48 255
-0.018905 0.008371 0.008552 0.998960 0.015830 -0.042752 48 48 48 255
-0.018905 0.020624 0.013089 0.998960 0.015830 -0.042752 48 48 48 255
-0.018576 0.009231 0.016558 0.998960 0.015830 -0.042752 48 48 48 255
-0.006308 -0.017169 0.014455 0.000000 0.290720 -0.956808 48 48 48 255
0.007095 -0.021666 0.013089 0.000000 0.290720 -0.956808 48 48 48 255
-0.018905 -0.021666 0.013089 0.000000 0.290720 -0.956808 48 48 48 255
-0.018905 -0.021666 0.013089 -0.000187 0.291201 -0.956662 48 48 48 255
-0.018853 -0.009734 0.016721 -0.000187 0.291201 -0.956662 48 48 48 255
-0.006308 -0.017169 0.014455 -0.000187 0.291201 -0.956662 48 48 48 255
-0.006308 -0.017169 0.014455 0.000203 0.291273 -0.956640 48 48 48 255
0.006917 -0.010128 0.016602 0.000203 0.291273 -0.956640 48 48 48 255
0.007095 -0.021666 0.013089 0.000203 0.291273 -0.956640 48 48 48 255
0.007095 -0.009413 0.008552 -0.999756 0.000000 -0.022106 48 48 48 255
0.007095 -0.021666 0.008552 -0.999756 0.000000 -0.022106 48 48 48 255
0.006917 -0.010128 0.016602 -0.999756 0.000000 -0.022106 48 48 48 255
-0.018853 -0.009734 0.016721 0.999982 -0.005666 0.001911 48 48 48 255
-0.018905 -0.021666 0.008552 0.999982 -0.005666 0.001911 48 48 48 255
-0.018837 -0.009665 0.008552 0.999982 -0.005666 0.001911 48 48 48 255
0.027995 -0.006021 0.017852 0.001189 0.291244 -0.956648 48 48 48 255
0.027995 -0.021666 0.013089 0.001189 0.291244 -0.956648 48 48 48 255
0.018721 -0.005970 0.017856 0.001189 0.291244 -0.956648 48 48 48 255
0.018721 -0.005970 0.017856 0.000000 0.290601 -0.956844 48 48 48 255
0.027995 -0.021666 0.013089 0.000000 0.290601 -0.956844 48 48 48 255
0.011995 -0.021666 0.013089 0.000000 0.290601 -0.956844 48 48 48 255
0.018721 -0.005970 0.017856 0.108702 0.245942 -0.963170 48 48 48 255
0.011995 -0.021666 0.013089 0.108702 0.245942 -0.963170 48 48 48 255
0.011995 -0.002680 0.017937 0.108702 0.245942 -0.963170 48 48 48 255
0.027995 -0.002619 0.018177 -1.000000 0.000001 0.000000 48 48 48 255
0.027995 -0.002421 0.008552 -1.000000 0.000001 0.000000 48 48 48 255
0.027995 -0.021954 0.010705 -1.000000 0.000001 0.000000 48 48 48 255
0.011995 -0.002680 0.017937 1.000000 0.000000 0.000000 48 48 48 255
0.011995 -0.021942 0.010715 1.000000 0.000000 0.000000 48 48 48 255
0.011995 -0.002421 0.008552 1.000000 0.000000 0.000000 48 48 48 255
0.011995 0.001514 0.017940 0.109661 -0.244559 -0.963413 48 48 48 255
0.011995 0.020624 0.013089 0.109661 -0.244559 -0.963413 48 48 48 255
0.018956 0.004982 0.017852 0.109661 -0.244559 -0.963413 48 48 48 255
0.018956 0.004982 0.017852 -0.000000 -0.291295 -0.956633 48 48 48 255
0.011995 0.020624 0.013089 -0.000000 -0.291295 -0.956633 48 48 48 255
0.027995 0.020624 0.013089 -0.000000 -0.291295 -0.956633 48 48 48 255
0.018956 0.004982 0.017852 -0.000097 -0.291244 -0.956649 48 48 48 255
0.027995 0.020624 0.013089 -0.000097 -0.291244 -0.956649 48 48 48 255
0.027995 0.004979 0.017852 -0.000097 -0.291244 -0.956649 48 48 48 255
0.027995 0.001577 0.018177 -1.000000 -0.000001 0.000000 48 48 48 255
0.027995 0.020912 0.010705 -1.000000 -0.000001 0.000000 48 48 48 255
0.027995 0.001379 0.008552 -1.000000 -0.000001 0.000000 48 48 48 255
0.011995 0.001514 0.017940 1.000000 -0.000000 0.000000 48 48 48 255
0.011995 0.001379 0.008552 1.000000 -0.000000 0.000000 48 48 48 255
0.011995 0.020899 0.010716 1.000000 -0.000000 0.000000 48 48 48 255
-0.035866 -0.003329 0.017852 -0.426875 -0.902761 0.052916 48 48 48 255
-0.034629 -0.004969 -0.000148 -0.426875 -0.902761 0.052916 48 48 48 255
-0.029766 -0.006214 0.017842 -0.426875 -0.902761 0.052916 48 48 48 255
0.018655 -0.001815 -0.001648 0.000000 -0.000000 -1.000000 48 48 48 255
0.018045 0.000132 -0.001648 0.000000 -0.000000 -1.000000 48 48 48 255
0.019196 0.001222 -0.001648 0.000000 -0.000000 -1.000000 48 48 48 255
-0.010665 -0.015955 0.014828 0.046205 -0.994444 0.094588 48 48 48 255
-0.004855 -0.016282 0.008552 0.046205 -0.994444 0.094588 48 48 48 255
-0.000549 -0.015471 0.014975 0.046205 -0.994444 0.094588 48 48 48 255
0.007095 0.008371 0.016819 0.683751 0.728118 0.048252 48 48 48 255
0.006917 0.009086 0.008552 0.683751 0.728118 0.048252 48 48 48 255
0.001279 0.013945 0.015123 0.683751 0.728118 0.048252 48 48 48 255
0.001279 0.013945 0.015123 0.555474 0.821206 -0.130646 48 48 48 255
0.006917 0.009086 0.008552 0.555474 0.821206 -0.130646 48 48 48 255
-0.001702 0.014916 0.008552 0.555474 0.821206 -0.130646 48 48 48 255
0.001279 0.013945 0.015123 0.081625 0.990645 0.109358 48 48 48 255
-0.001702 0.014916 0.008552 0.081625 0.990645 0.109358 48 48 48 255
-0.010109 0.014916 0.014827 0.081625 0.990645 0.109358 48 48 48 255
-0.019047 -0.009296 0.027425 -0.009723 -0.999752 0.020039 48 48 48 255
-0.043805 -0.009030 0.028683 -0.009723 -0.999752 0.020039 48 48 48 255
-0.018982 -0.009456 0.019474 -0.009723 -0.999752 0.020039 48 48 48 255
-0.018982 -0.009456 0.019474 0.000434 -0.998877 0.047376 48 48 48 255
-0.043805 -0.009030 0.028683 0.000434 -0.998877 0.047376 48 48 48 255
-0.043805 -0.009470 0.019406 0.000434 -0.998877 0.047376 48 48 48 255
-0.043805 -0.009030 0.028683 -0.024461 -0.736241 0.676277 48 48 48 255
-0.020232 -0.007289 0.031431 -0.024461 -0.736241 0.676277 48 48 48 255
-0.043805 -0.004609 0.033496 -0.024461 -0.736241 0.676277 48 48 48 255
-0.043805 0.008424 0.019417 0.000323 0.999323 0.036790 48 48 48 255
-0.043805 0.008105 0.028082 0.000323 0.999323 0.036790 48 48 48 255
-0.018991 0.008414 0.019471 0.000323 0.999323 0.036790 48 48 48 255
-0.018991 0.008414 0.019471 -0.009712 0.999922 0.007896 48 48 48 255
-0.043805 0.008105 0.028082 -0.009712 0.999922 0.007896 48 48 48 255
-0.018967 0.008360 0.026339 -0.009712 0.999922 0.007896 48 48 48 255
-0.016817 0.018379 0.062252 -0.866024 0.500003 0.000000 48 48 48 255
-0.027729 -0.000521 0.062252 -0.866024 0.500003 0.000000 48 48 48 255
-0.016817 0.018379 0.076552 -0.866024 0.500003 0.000000 48 48 48 255
-0.027729 -0.000521 0.076552 -0.866024 0.500003 0.000000 48 48 48 255
0.005007 0.018379 0.076552 0.000093 1.000000 -0.000000 48 48 48 255
0.005007 0.018379 0.062252 0.000093 1.000000 -0.000000 48 48 48 255
-0.005738 0.018380 0.062919 0.000093 1.000000 -0.000000 48 48 48 255
-0.016817 0.018379 0.062252 -0.000090 1.000000 0.000000 48 48 48 255
-0.016817 0.018379 0.076552 -0.000090 1.000000 0.000000 48 48 48 255
-0.005738 0.018380 0.062919 -0.000090 1.000000 0.000000 48 48 48 255
0.005007 0.018379 0.076552 0.000000 1.000000 0.000073 48 48 48 255
-0.005738 0.018380 0.062919 0.000000 1.000000 0.000073 48 48 48 255
-0.016817 0.018379 0.076552 0.000000 1.000000 0.000073 48 48 48 255
0.015919 -0.000521 0.062252 0.866024 0.500003 0.000000 48 48 48 255
0.005007 0.018379 0.062252 0.866024 0.500003 0.000000 48 48 48 255
0.015919 -0.000521 0.076552 0.866024 0.500003 0.000000 48 48 48 255
0.005007 0.018379 0.076552 0.866024 0.500003 0.000000 48 48 48 255
0.005007 -0.019421 0.062252 0.866024 -0.500003 0.000000 48 48 48 255
0.015919 -0.000521 0.062252 0.866024 -0.500003 0.000000 48 48 48 255
0.005007 -0.019421 0.076552 0.866024 -0.500003 0.000000 48 48 48 255
0.015919 -0.000521 0.076552 0.866024 -0.500003 0.000000 48 48 48 255
-0.016817 -0.019421 0.062252 -0.000000 -1.000000 -0.000000 48 48 48 255
0.005007 -0.019421 0.062252 -0.000000 -1.000000 -0.000000 48 48 48 255
-0.016817 -0.019421 0.076552 -0.000000 -1.000000 -0.000000 48 48 48 255
0.005007 -0.019421 0.076552 -0.000000 -1.000000 -0.000000 48 48 48 255
-0.027729 -0.000521 0.062252 -0.866024 -0.500003 0.000000 48 48 48 255
-0.016817 -0.019421 0.062252 -0.866024 -0.500003 0.000000 48 48 48 255
-0.027729 -0.000521 0.076552 -0.866024 -0.500003 0.000000 48 48 48 255
-0.016817 -0.019421 0.076552 -0.866024 -0.500003 -0.000000 48 48 48 255
-0.005489 0.015665 0.076552 0.000000 0.000000 1.000000 48 48 48 255
0.005460 0.010775 0.076552 0.000000 0.000000 1.000000 48 48 48 255
0.005007 0.018379 0.076552 0.000000 0.000000 1.000000 48 48 48 255
0.010450 -0.003216 0.076552 0.000000 0.000000 1.000000 48 48 48 255
0.015919 -0.000521 0.076552 0.000000 0.000000 1.000000 48 48 48 255
0.003382 -0.016586 0.076552 0.000000 0.000000 1.000000 48 48 48 255
-0.007523 -0.016337 0.076552 -0.000000 -0.000000 1.000000 48 48 48 255
-0.017406 -0.011918 0.076552 -0.000000 -0.000000 1.000000 48 48 48 255
-0.016817 -0.019421 0.076552 -0.000000 -0.000000 1.000000 48 48 48 255
-0.022283 -0.004723 0.076552 -0.000000 0.000000 1.000000 48 48 48 255
-0.017780 0.010486 0.076552 -0.000000 0.000000 1.000000 48 48 48 255
-0.027729 -0.000521 0.076552 -0.000000 0.000000 1.000000 48 48 48 255
-0.016817 0.018379 0.076552 0.000000 0.000000 1.000000 48 48 48 255
-0.013080 -0.010661 0.098552 0.000007 -0.000002 1.000000 48 48 48 255
-0.020376 -0.001708 0.098552 0.000007 -0.000002 1.000000 48 48 48 255
-0.016804 -0.012495 0.098552 0.000007 -0.000002 1.000000 48 48 48 255
-0.000368 -0.013328 0.098552 -0.000010 0.000014 1.000000 48 48 48 255
0.010649 -0.003055 0.098552 -0.000010 0.000014 1.000000 48 48 48 255
0.007330 0.000464 0.098552 -0.000010 0.000014 1.000000 48 48 48 255
-0.006909 -0.016377 0.098552 0.177633 -0.984074 -0.006747 48 48 48 255
-0.007523 -0.016337 0.076552 0.177633 -0.984074 -0.006747 48 48 48 255
0.001568 -0.014696 0.076552 0.177633 -0.984074 -0.006747 48 48 48 255
-0.006909 -0.016377 0.098552 0.189528 -0.981873 -0.001995 48 48 48 255
0.001568 -0.014696 0.076552 0.189528 -0.981873 -0.001995 48 48 48 255
0.000950 -0.014860 0.098552 0.189528 -0.981873 -0.001995 48 48 48 255
0.000950 -0.014860 0.098552 0.690061 -0.723616 0.013990 48 48 48 255
0.001568 -0.014696 0.076552 0.690061 -0.723616 0.013990 48 48 48 255
0.008735 -0.007436 0.098552 0.690061 -0.723616 0.013990 48 48 48 255
0.008735 -0.007436 0.098552 0.715310 -0.698803 -0.002423 48 48 48 255
0.001568 -0.014696 0.076552 0.715310 -0.698803 -0.002423 48 48 48 255
0.008130 -0.007979 0.076552 0.715310 -0.698803 -0.002423 48 48 48 255
0.008735 -0.007436 0.098552 0.978602 -0.204596 -0.021862 48 48 48 255
0.008130 -0.007979 0.076552 0.978602 -0.204596 -0.021862 48 48 48 255
0.010034 0.001128 0.076552 0.978602 -0.204596 -0.021862 48 48 48 255
0.008735 -0.007436 0.098552 0.993947 -0.108630 0.016401 48 48 48 255
0.010034 0.001128 0.076552 0.993947 -0.108630 0.016401 48 48 48 255
0.009736 0.001723 0.098552 0.993947 -0.108630 0.016401 48 48 48 255
0.009736 0.001723 0.098552 0.918747 0.394842 0.001766 48 48 48 255
0.010034 0.001128 0.076552 0.918747 0.394842 0.001766 48 48 48 255
0.005970 0.010486 0.098552 0.918747 0.394842 0.001766 48 48 48 255
0.005970 0.010486 0.098552 0.903473 0.428370 -0.015317 48 48 48 255
0.010034 0.001128 0.076552 0.903473 0.428370 -0.015317 48 48 48 255
0.005460 0.010775 0.076552 0.903473 0.428370 -0.015317 48 48 48 255
0.005970 0.010486 0.098552 0.407792 0.913071 0.002541 48 48 48 255
0.005460 0.010775 0.076552 0.407792 0.913071 0.002541 48 48 48 255
-0.005489 0.015665 0.076552 0.407792 0.913071 0.002541 48 48 48 255
0.005970 0.010486 0.098552 0.415987 0.909367 -0.002599 48 48 48 255
-0.005489 0.015665 0.076552 0.415987 0.909367 -0.002599 48 48 48 255
-0.004934 0.015474 0.098552 0.415987 0.909367 -0.002599 48 48 48 255
-0.004934 0.015474 0.098552 -0.245998 0.969160 0.014620 48 48 48 255
-0.005489 0.015665 0.076552 -0.245998 0.969160 0.014620 48 48 48 255
-0.013952 0.013185 0.098552 -0.245998 0.969160 0.014620 48 48 48 255
-0.013952 0.013185 0.098552 -0.387901 0.920580 -0.045444 48 48 48 255
-0.005489 0.015665 0.076552 -0.387901 0.920580 -0.045444 48 48 48 255
-0.017780 0.010486 0.076552 -0.387901 0.920580 -0.045444 48 48 48 255
-0.013952 0.013185 0.098552 -0.748154 0.661714 0.048998 48 48 48 255
-0.017780 0.010486 0.076552 -0.748154 0.661714 0.048998 48 48 48 255
-0.021079 0.005127 0.098552 -0.748154 0.661714 0.048998 48 48 48 255
-0.021079 0.005127 0.098552 -0.937246 0.344022 -0.056744 48 48 48 255
-0.017780 0.010486 0.076552 -0.937246 0.344022 -0.056744 48 48 48 255
-0.021927 -0.000812 0.076552 -0.937246 0.344022 -0.056744 48 48 48 255
-0.021079 0.005127 0.098552 -0.999199 0.023976 0.032042 48 48 48 255
-0.021927 -0.000812 0.076552 -0.999199 0.023976 0.032042 48 48 48 255
-0.021300 -0.004083 0.098552 -0.999199 0.023976 0.032042 48 48 48 255
-0.021300 -0.004083 0.098552 -0.925792 -0.376869 -0.029648 48 48 48 255
-0.021927 -0.000812 0.076552 -0.925792 -0.376869 -0.029648 48 48 48 255
-0.017406 -0.011918 0.076552 -0.925792 -0.376869 -0.029648 48 48 48 255
-0.021300 -0.004083 0.098552 -0.881874 -0.471339 0.011769 48 48 48 255
-0.017406 -0.011918 0.076552 -0.881874 -0.471339 0.011769 48 48 48 255
-0.016804 -0.012495 0.098552 -0.881874 -0.471339 0.011769 48 48 48 255
-0.016804 -0.012495 0.098552 -0.408152 -0.912824 -0.012772 48 48 48 255
-0.017406 -0.011918 0.076552 -0.408152 -0.912824 -0.012772 48 48 48 255
-0.007523 -0.016337 0.076552 -0.408152 -0.912824 -0.012772 48 48 48 255
-0.016804 -0.012495 0.098552 -0.365205 -0.930888 0.008500 48 48 48 255
-0.007523 -0.016337 0.076552 -0.365205 -0.930888 0.008500 48 48 48 255
-0.006909 -0.016377 0.098552 -0.365205 -0.930888 0.008500 48 48 48 255
0.014733 0.001367 0.028518 0.010937 0.999745 0.019751 48 48 48 255
0.023601 0.001446 0.019609 0.010937 0.999745 0.019751 48 48 48 255
0.009857 0.001594 0.019728 0.010937 0.999745 0.019751 48 48 48 255
0.023586 -0.002503 0.019615 0.009852 -0.999747 0.020248 48 48 48 255
0.014734 -0.002410 0.028514 0.009852 -0.999747 0.020248 48 48 48 255
0.009859 -0.002636 0.019727 0.009852 -0.999747 0.020248 48 48 48 255
-0.005735 0.011251 0.012552 0.000000 0.000000 1.000000 48 48 48 255
-0.002207 -0.011912 0.012552 0.000000 0.000000 1.000000 48 48 48 255
0.003971 -0.006898 0.012552 0.000000 0.000000 1.000000 48 48 48 255
-0.005735 0.011251 0.012552 0.000000 -0.000000 1.000000 48 48 48 255
-0.011048 -0.011200 0.012552 0.000000 -0.000000 1.000000 48 48 48 255
-0.002207 -0.011912 0.012552 0.000000 -0.000000 1.000000 48 48 48 255
-0.005735 0.011251 0.012552 0.000000 -0.000000 1.000000 48 48 48 255
-0.016615 -0.005598 0.012552 0.000000 -0.000000 1.000000 48 48 48 255
-0.011048 -0.011200 0.012552 0.000000 -0.000000 1.000000 48 48 48 255
-0.005735 0.011251 0.012552 0.256909 -0.966400 0.008282 48 48 48 255
-0.009279 0.010644 0.051660 0.256909 -0.966400 0.008282 48 48 48 255
-0.011953 0.009598 0.012552 0.256909 -0.966400 0.008282 48 48 48 255
-0.012272 0.009436 0.098552 0.271923 -0.962281 -0.008596 48 48 48 255
-0.009138 0.010684 0.057985 0.271923 -0.962281 -0.008596 48 48 48 255
-0.005888 0.011240 0.098552 0.271923 -0.962281 -0.008596 48 48 48 255
-0.011953 0.009598 0.012552 0.765532 -0.643396 0.001628 48 48 48 255
-0.012272 0.009436 0.098552 0.765532 -0.643396 0.001628 48 48 48 255
-0.017263 0.003280 0.012552 0.765532 -0.643396 0.001628 48 48 48 255
-0.017263 0.003280 0.012552 0.793657 -0.608360 -0.002513 48 48 48 255
-0.012272 0.009436 0.098552 0.793657 -0.608360 -0.002513 48 48 48 255
-0.017443 0.002690 0.098552 0.793657 -0.608360 -0.002513 48 48 48 255
-0.017263 0.003280 0.012552 0.997344 0.072796 0.002587 48 48 48 255
-0.017443 0.002690 0.098552 0.997344 0.072796 0.002587 48 48 48 255
-0.016615 -0.005598 0.012552 0.997344 0.072796 0.002587 48 48 48 255
-0.016615 -0.005598 0.012552 0.992458 0.122563 -0.002256 48 48 48 255
-0.017443 0.002690 0.098552 0.992458 0.122563 -0.002256 48 48 48 255
-0.016356 -0.006112 0.098552 0.992458 0.122563 -0.002256 48 48 48 255
-0.016615 -0.005598 0.012552 0.709318 0.704886 0.002077 48 48 48 255
-0.016356 -0.006112 0.098552 0.709318 0.704886 0.002077 48 48 48 255
-0.011048 -0.011200 0.012552 0.709318 0.704886 0.002077 48 48 48 255
-0.011048 -0.011200 0.012552 0.674277 0.738476 -0.002073 48 48 48 255
-0.016356 -0.006112 0.098552 0.674277 0.738476 -0.002073 48 48 48 255
-0.010524 -0.011437 0.098552 0.674277 0.738476 -0.002073 48 48 48 255
-0.011048 -0.011200 0.012552 0.080274 0.996770 0.002258 48 48 48 255
-0.010524 -0.011437 0.098552 0.080274 0.996770 0.002258 48 48 48 255
-0.002207 -0.011912 0.012552 0.080274 0.996770 0.002258 48 48 48 255
-0.002207 -0.011912 0.012552 0.030330 0.999537 -0.002588 48 48 48 255
-0.010524 -0.011437 0.098552 0.030330 0.999537 -0.002588 48 48 48 255
-0.001626 -0.011707 0.098552 0.030330 0.999537 -0.002588 48 48 48 255
-0.002207 -0.011912 0.012552 -0.630165 0.776458 0.002406 48 48 48 255
-0.001626 -0.011707 0.098552 -0.630165 0.776458 0.002406 48 48 48 255
0.003971 -0.006898 0.012552 -0.630165 0.776458 0.002406 48 48 48 255
0.003971 -0.006898 0.012552 -0.666366 0.745623 -0.001674 48 48 48 255
-0.001626 -0.011707 0.098552 -0.666366 0.745623 -0.001674 48 48 48 255
0.004235 -0.006469 0.098552 -0.666366 0.745623 -0.001674 48 48 48 255
0.005827 -0.001272 0.012552 -0.976251 -0.216638 0.001508 48 48 48 255
0.005848 -0.000768 0.098552 -0.976251 -0.216638 0.001508 48 48 48 255
0.004336 0.005447 0.012552 -0.976251 -0.216638 0.001508 48 48 48 255
0.004336 0.005447 0.012552 -0.965295 -0.261155 -0.001902 48 48 48 255
0.005848 -0.000768 0.098552 -0.965295 -0.261155 -0.001902 48 48 48 255
0.004034 0.005937 0.098552 -0.965295 -0.261155 -0.001902 48 48 48 255
3 0 1 2
3 3 4 5
3 6 7 8
3 9 10 11
3 12 13 14
3 15 16 17
3 18 19 20
3 21 22 23
3 24 25 26
3 27 28 29
3 30 31 32
3 33 34 35
3 36 37 38
3 39 40 41
3 42 43 44
3 44 43 45
3 46 47 48
3 49 50 51
3 44 52 42
3 53 54 55
3 53 55 48
3 48 55 46
3 41 40 54
3 54 40 55
3 39 36 38
3 43 56 45
3 45 56 57
3 57 47 46
3 36 39 41
3 57 58 47
3 47 58 36
3 36 58 37
3 59 60 61
3 62 63 64
3 65 66 67
3 67 66 68
3 68 66 69
3 69 65 68
3 70 71 72
3 73 74 75
3 76 77 78
3 79 80 81
3 82 83 84
3 85 86 87
3 88 89 90
3 91 92 93
3 94 95 96
3 97 98 99
3 100 101 102
3 103 104 105
3 106 107 108
3 109 110 111
3 112 113 114
3 115 116 117
3 118 119 120
3 121 122 123
3 124 125 126
3 127 128 129
3 130 131 132
3 133 134 135
3 136 137 138
3 139 140 141
3 142 143 144
3 145 146 147
3 148 149 150
3 151 152 153
3 154 155 156
3 157 158 159
3 160 161 162
3 163 164 165
3 166 167 168
3 169 170 171
3 172 173 174
3 175 176 177
3 178 179 180
3 181 182 183
3 184 185 186
3 187 188 189
3 190 191 192
3 193 194 195
3 196 197 198
3 199 200 201
3 202 203 204
3 205 206 207
3 208 209 210
3 211 212 213
3 214 215 216
3 217 218 219
3 220 221 222
3 222 221 223
3 224 225 226
3 227 228 229
3 230 231 232
3 233 234 235
3 235 234 236
3 237 238 239
3 239 238 240
3 241 242 243
3 243 242 244
3 245 246 247
3 247 246 248
3 249 250 251
3 252 253 250
3 250 253 251
3 253 252 254
3 255 256 257
3 258 259 260
3 260 259 261
3 261 259 249
3 261 249 251
3 262 263 264
3 265 266 267
3 268 269 270
3 271 272 273
3 274 275 276
3 277 278 279
3 280 281 282
3 283 284 285
3 286 287 288
3 289 290 291
3 292 293 294
3 295 296 297
3 298 299 300
3 301 302 303
3 304 305 306
3 307 308 309
3 310 311 312
3 313 314 315
3 316 317 318
3 319 320 321
3 322 323 324
3 325 326 327
3 328 329 330
3 331 332 333
3 334 335 336
3 337 338 339
3 340 341 342
3 343 344 345
3 346 347 348
3 349 350 351
3 352 353 354
3 355 356 357
3 358 359 360
3 361 362 363
3 364 365 366
3 367 368 369
3 370 371 372
3 373 374 375
3 376 377 378
3 379 380 381
